<svg xmlns="http://www.w3.org/2000/svg" xmlns:xlink="http://www.w3.org/1999/xlink" contentStyleType="text/css" height="669px" preserveAspectRatio="none" style="width:655px;height:669px;background:#FFFFFF;" version="1.1" viewBox="0 0 655 669" width="655px" zoomAndPan="magnify"><defs/><g><!--class App--><g id="elem_App"><rect codeLine="8" fill="#F1F1F1" height="243.5625" id="App" rx="2.5" ry="2.5" style="stroke:#181818;stroke-width:0.5;" width="288.0215" x="9.17" y="7"/><ellipse cx="135.2554" cy="23" fill="#ADD1B2" rx="11" ry="11" style="stroke:#181818;stroke-width:1;"/><path d="M138.2242,28.6406 Q137.6461,28.9375 137.0054,29.0781 Q136.3648,29.2344 135.6617,29.2344 Q133.1617,29.2344 131.8336,27.5938 Q130.5211,25.9375 130.5211,22.8125 Q130.5211,19.6875 131.8336,18.0313 Q133.1617,16.375 135.6617,16.375 Q136.3648,16.375 137.0054,16.5313 Q137.6617,16.6875 138.2242,16.9844 L138.2242,19.7031 Q137.5992,19.125 137.0054,18.8594 Q136.4117,18.5781 135.7867,18.5781 Q134.4429,18.5781 133.7554,19.6563 Q133.0679,20.7188 133.0679,22.8125 Q133.0679,24.9063 133.7554,25.9844 Q134.4429,27.0469 135.7867,27.0469 Q136.4117,27.0469 137.0054,26.7813 Q137.5992,26.5 138.2242,25.9219 L138.2242,28.6406 Z " fill="#000000"/><text fill="#000000" font-family="sans-serif" font-size="14" lengthAdjust="spacing" textLength="27.3506" x="155.7554" y="27.8467">App</text><line style="stroke:#181818;stroke-width:0.5;" x1="10.17" x2="296.1915" y1="39" y2="39"/><rect fill="none" height="6" style="stroke:#C82930;stroke-width:1;" width="6" x="17.17" y="49.6484"/><text fill="#000000" font-family="sans-serif" font-size="14" lengthAdjust="spacing" textLength="100.9395" x="29.17" y="55.9951">cur_user: User</text><rect fill="none" height="6" style="stroke:#C82930;stroke-width:1;" width="6" x="17.17" y="65.9453"/><text fill="#000000" font-family="sans-serif" font-size="14" lengthAdjust="spacing" textLength="72.5225" x="29.17" y="72.292">chat: Chat</text><rect fill="none" height="6" style="stroke:#C82930;stroke-width:1;" width="6" x="17.17" y="82.2422"/><text fill="#000000" font-family="sans-serif" font-size="14" lengthAdjust="spacing" textLength="119.6016" x="29.17" y="88.5889">adverts: Advert[]</text><line style="stroke:#181818;stroke-width:0.5;" x1="10.17" x2="296.1915" y1="95.8906" y2="95.8906"/><ellipse cx="20.17" cy="109.5391" fill="#84BE84" rx="3" ry="3" style="stroke:#038048;stroke-width:1;"/><text fill="#000000" font-family="sans-serif" font-size="14" lengthAdjust="spacing" textLength="88.2178" x="29.17" y="112.8857">open_chat();</text><ellipse cx="20.17" cy="125.8359" fill="#84BE84" rx="3" ry="3" style="stroke:#038048;stroke-width:1;"/><text fill="#000000" font-family="sans-serif" font-size="14" lengthAdjust="spacing" textLength="119.2256" x="29.17" y="129.1826">send_message();</text><ellipse cx="20.17" cy="142.1328" fill="#84BE84" rx="3" ry="3" style="stroke:#038048;stroke-width:1;"/><text fill="#000000" font-family="sans-serif" font-size="14" lengthAdjust="spacing" textLength="151.7783" x="29.17" y="145.4795">get_new_messages();</text><ellipse cx="20.17" cy="158.4297" fill="#84BE84" rx="3" ry="3" style="stroke:#038048;stroke-width:1;"/><text fill="#000000" font-family="sans-serif" font-size="14" lengthAdjust="spacing" textLength="112.998" x="29.17" y="161.7764">create_advert();</text><ellipse cx="20.17" cy="174.7266" fill="#84BE84" rx="3" ry="3" style="stroke:#038048;stroke-width:1;"/><text fill="#000000" font-family="sans-serif" font-size="14" lengthAdjust="spacing" textLength="262.0215" x="29.17" y="178.0732">set_advert_info(room_num, address);</text><ellipse cx="20.17" cy="191.0234" fill="#84BE84" rx="3" ry="3" style="stroke:#038048;stroke-width:1;"/><text fill="#000000" font-family="sans-serif" font-size="14" lengthAdjust="spacing" textLength="173.9336" x="29.17" y="194.3701">make_advert_do_smth();</text><ellipse cx="20.17" cy="207.3203" fill="#84BE84" rx="3" ry="3" style="stroke:#038048;stroke-width:1;"/><text fill="#000000" font-family="sans-serif" font-size="14" lengthAdjust="spacing" textLength="111.1455" x="29.17" y="210.667">fetch_adverts();</text><ellipse cx="20.17" cy="223.6172" fill="#84BE84" rx="3" ry="3" style="stroke:#038048;stroke-width:1;"/><text fill="#000000" font-family="sans-serif" font-size="14" lengthAdjust="spacing" textLength="192.1172" x="29.17" y="226.9639">filter_adverts_cheap_first();</text><ellipse cx="20.17" cy="239.9141" fill="#84BE84" rx="3" ry="3" style="stroke:#038048;stroke-width:1;"/><text fill="#000000" font-family="sans-serif" font-size="14" lengthAdjust="spacing" textLength="172.7236" x="29.17" y="243.2607">get_first_found_advert();</text></g><!--class AdvertState--><g id="elem_AdvertState"><rect codeLine="23" fill="#F1F1F1" height="64.2969" id="AdvertState" rx="2.5" ry="2.5" style="stroke:#181818;stroke-width:0.5;" width="115.665" x="532.35" y="392.05"/><ellipse cx="547.35" cy="408.05" fill="#B4A7E5" rx="11" ry="11" style="stroke:#181818;stroke-width:1;"/><path d="M543.2719,403.8156 L543.2719,401.6594 L550.6625,401.6594 L550.6625,403.8156 L548.1938,403.8156 L548.1938,411.8938 L550.6625,411.8938 L550.6625,414.05 L543.2719,414.05 L543.2719,411.8938 L545.7406,411.8938 L545.7406,403.8156 L543.2719,403.8156 Z " fill="#000000"/><text fill="#000000" font-family="sans-serif" font-size="14" font-style="italic" lengthAdjust="spacing" textLength="83.665" x="561.35" y="412.8967">AdvertState</text><line style="stroke:#181818;stroke-width:0.5;" x1="533.35" x2="647.015" y1="424.05" y2="424.05"/><line style="stroke:#181818;stroke-width:0.5;" x1="533.35" x2="647.015" y1="432.05" y2="432.05"/><ellipse cx="543.35" cy="445.6984" fill="#84BE84" rx="3" ry="3" style="stroke:#038048;stroke-width:1;"/><text fill="#000000" font-family="sans-serif" font-size="14" lengthAdjust="spacing" textLength="75.3867" x="552.35" y="449.0451">do_smth();</text></g><!--class ActiveAdvert--><g id="elem_ActiveAdvert"><rect codeLine="27" fill="#F1F1F1" height="48" id="ActiveAdvert" rx="2.5" ry="2.5" style="stroke:#181818;stroke-width:0.5;" width="122.1592" x="522.1" y="104.79"/><ellipse cx="537.1" cy="120.79" fill="#ADD1B2" rx="11" ry="11" style="stroke:#181818;stroke-width:1;"/><path d="M540.0688,126.4306 Q539.4906,126.7275 538.85,126.8681 Q538.2094,127.0244 537.5063,127.0244 Q535.0063,127.0244 533.6781,125.3837 Q532.3656,123.7275 532.3656,120.6025 Q532.3656,117.4775 533.6781,115.8212 Q535.0063,114.165 537.5063,114.165 Q538.2094,114.165 538.85,114.3212 Q539.5063,114.4775 540.0688,114.7744 L540.0688,117.4931 Q539.4438,116.915 538.85,116.6494 Q538.2563,116.3681 537.6313,116.3681 Q536.2875,116.3681 535.6,117.4462 Q534.9125,118.5087 534.9125,120.6025 Q534.9125,122.6962 535.6,123.7744 Q536.2875,124.8369 537.6313,124.8369 Q538.2563,124.8369 538.85,124.5712 Q539.4438,124.29 540.0688,123.7119 L540.0688,126.4306 Z " fill="#000000"/><text fill="#000000" font-family="sans-serif" font-size="14" lengthAdjust="spacing" textLength="90.1592" x="551.1" y="125.6367">ActiveAdvert</text><line style="stroke:#181818;stroke-width:0.5;" x1="523.1" x2="643.2592" y1="136.79" y2="136.79"/><line style="stroke:#181818;stroke-width:0.5;" x1="523.1" x2="643.2592" y1="144.79" y2="144.79"/></g><!--class InactiveAdvert--><g id="elem_InactiveAdvert"><rect codeLine="29" fill="#F1F1F1" height="48" id="InactiveAdvert" rx="2.5" ry="2.5" style="stroke:#181818;stroke-width:0.5;" width="134.1631" x="346.1" y="104.79"/><ellipse cx="361.1" cy="120.79" fill="#ADD1B2" rx="11" ry="11" style="stroke:#181818;stroke-width:1;"/><path d="M364.0688,126.4306 Q363.4906,126.7275 362.85,126.8681 Q362.2094,127.0244 361.5063,127.0244 Q359.0063,127.0244 357.6781,125.3837 Q356.3656,123.7275 356.3656,120.6025 Q356.3656,117.4775 357.6781,115.8212 Q359.0063,114.165 361.5063,114.165 Q362.2094,114.165 362.85,114.3212 Q363.5063,114.4775 364.0688,114.7744 L364.0688,117.4931 Q363.4438,116.915 362.85,116.6494 Q362.2563,116.3681 361.6313,116.3681 Q360.2875,116.3681 359.6,117.4462 Q358.9125,118.5087 358.9125,120.6025 Q358.9125,122.6962 359.6,123.7744 Q360.2875,124.8369 361.6313,124.8369 Q362.2563,124.8369 362.85,124.5712 Q363.4438,124.29 364.0688,123.7119 L364.0688,126.4306 Z " fill="#000000"/><text fill="#000000" font-family="sans-serif" font-size="14" lengthAdjust="spacing" textLength="102.1631" x="375.1" y="125.6367">InactiveAdvert</text><line style="stroke:#181818;stroke-width:0.5;" x1="347.1" x2="479.2631" y1="136.79" y2="136.79"/><line style="stroke:#181818;stroke-width:0.5;" x1="347.1" x2="479.2631" y1="144.79" y2="144.79"/></g><!--class Advert--><g id="elem_Advert"><rect codeLine="31" fill="#F1F1F1" height="227.2656" id="Advert" rx="2.5" ry="2.5" style="stroke:#181818;stroke-width:0.5;" width="219.8535" x="277.25" y="310.57"/><ellipse cx="359.623" cy="326.57" fill="#ADD1B2" rx="11" ry="11" style="stroke:#181818;stroke-width:1;"/><path d="M362.5918,332.2106 Q362.0137,332.5075 361.373,332.6481 Q360.7324,332.8044 360.0293,332.8044 Q357.5293,332.8044 356.2012,331.1638 Q354.8887,329.5075 354.8887,326.3825 Q354.8887,323.2575 356.2012,321.6013 Q357.5293,319.945 360.0293,319.945 Q360.7324,319.945 361.373,320.1013 Q362.0293,320.2575 362.5918,320.5544 L362.5918,323.2731 Q361.9668,322.695 361.373,322.4294 Q360.7793,322.1481 360.1543,322.1481 Q358.8105,322.1481 358.123,323.2263 Q357.4355,324.2888 357.4355,326.3825 Q357.4355,328.4763 358.123,329.5544 Q358.8105,330.6169 360.1543,330.6169 Q360.7793,330.6169 361.373,330.3513 Q361.9668,330.07 362.5918,329.4919 L362.5918,332.2106 Z " fill="#000000"/><text fill="#000000" font-family="sans-serif" font-size="14" lengthAdjust="spacing" textLength="46.6074" x="380.123" y="331.4167">Advert</text><line style="stroke:#181818;stroke-width:0.5;" x1="278.25" x2="496.1035" y1="342.57" y2="342.57"/><rect fill="none" height="6" style="stroke:#C82930;stroke-width:1;" width="6" x="285.25" y="353.2184"/><text fill="#000000" font-family="sans-serif" font-size="14" lengthAdjust="spacing" textLength="128.2969" x="297.25" y="359.5651">state: AdvertState</text><rect fill="none" height="6" style="stroke:#C82930;stroke-width:1;" width="6" x="285.25" y="369.5153"/><text fill="#000000" font-family="sans-serif" font-size="14" lengthAdjust="spacing" textLength="102.3271" x="297.25" y="375.862">room_num: int</text><rect fill="none" height="6" style="stroke:#C82930;stroke-width:1;" width="6" x="285.25" y="385.8122"/><text fill="#000000" font-family="sans-serif" font-size="14" lengthAdjust="spacing" textLength="104.665" x="297.25" y="392.1589">address: string</text><rect fill="none" height="6" style="stroke:#C82930;stroke-width:1;" width="6" x="285.25" y="402.1091"/><text fill="#000000" font-family="sans-serif" font-size="14" lengthAdjust="spacing" textLength="85.9277" x="297.25" y="408.4557">cost: double</text><line style="stroke:#181818;stroke-width:0.5;" x1="278.25" x2="496.1035" y1="415.7575" y2="415.7575"/><ellipse cx="288.25" cy="429.4059" fill="#84BE84" rx="3" ry="3" style="stroke:#038048;stroke-width:1;"/><text fill="#000000" font-family="sans-serif" font-size="14" lengthAdjust="spacing" textLength="131.5576" x="297.25" y="432.7526">get_cost(): double;</text><ellipse cx="288.25" cy="445.7028" fill="#84BE84" rx="3" ry="3" style="stroke:#038048;stroke-width:1;"/><text fill="#000000" font-family="sans-serif" font-size="14" lengthAdjust="spacing" textLength="193.8535" x="297.25" y="449.0495">set_room_num(room_num);</text><ellipse cx="288.25" cy="461.9997" fill="#84BE84" rx="3" ry="3" style="stroke:#038048;stroke-width:1;"/><text fill="#000000" font-family="sans-serif" font-size="14" lengthAdjust="spacing" textLength="145.7695" x="297.25" y="465.3464">set_adress(address);</text><ellipse cx="288.25" cy="478.2966" fill="#84BE84" rx="3" ry="3" style="stroke:#038048;stroke-width:1;"/><text fill="#000000" font-family="sans-serif" font-size="14" lengthAdjust="spacing" textLength="102.1289" x="297.25" y="481.6432">set_cost(cost);</text><ellipse cx="288.25" cy="494.5934" fill="#84BE84" rx="3" ry="3" style="stroke:#038048;stroke-width:1;"/><text fill="#000000" font-family="sans-serif" font-size="14" lengthAdjust="spacing" textLength="72.2627" x="297.25" y="497.9401">activate();</text><ellipse cx="288.25" cy="510.8903" fill="#84BE84" rx="3" ry="3" style="stroke:#038048;stroke-width:1;"/><text fill="#000000" font-family="sans-serif" font-size="14" lengthAdjust="spacing" textLength="85.0391" x="297.25" y="514.237">diactivate();</text><ellipse cx="288.25" cy="527.1872" fill="#84BE84" rx="3" ry="3" style="stroke:#038048;stroke-width:1;"/><text fill="#000000" font-family="sans-serif" font-size="14" lengthAdjust="spacing" textLength="75.3867" x="297.25" y="530.5339">do_smth();</text></g><!--class Chat--><g id="elem_Chat"><rect codeLine="51" fill="#F1F1F1" height="129.4844" id="Chat" rx="2.5" ry="2.5" style="stroke:#181818;stroke-width:0.5;" width="177.7783" x="64.29" y="359.46"/><ellipse cx="132.5708" cy="375.46" fill="#ADD1B2" rx="11" ry="11" style="stroke:#181818;stroke-width:1;"/><path d="M135.5395,381.1006 Q134.9614,381.3975 134.3208,381.5381 Q133.6801,381.6944 132.977,381.6944 Q130.477,381.6944 129.1489,380.0538 Q127.8364,378.3975 127.8364,375.2725 Q127.8364,372.1475 129.1489,370.4913 Q130.477,368.835 132.977,368.835 Q133.6801,368.835 134.3208,368.9913 Q134.977,369.1475 135.5395,369.4444 L135.5395,372.1631 Q134.9145,371.585 134.3208,371.3194 Q133.727,371.0381 133.102,371.0381 Q131.7583,371.0381 131.0708,372.1163 Q130.3833,373.1788 130.3833,375.2725 Q130.3833,377.3663 131.0708,378.4444 Q131.7583,379.5069 133.102,379.5069 Q133.727,379.5069 134.3208,379.2413 Q134.9145,378.96 135.5395,378.3819 L135.5395,381.1006 Z " fill="#000000"/><text fill="#000000" font-family="sans-serif" font-size="14" lengthAdjust="spacing" textLength="32.7168" x="153.0708" y="380.3067">Chat</text><line style="stroke:#181818;stroke-width:0.5;" x1="65.29" x2="241.0683" y1="391.46" y2="391.46"/><rect fill="none" height="6" style="stroke:#C82930;stroke-width:1;" width="6" x="72.29" y="402.1084"/><text fill="#000000" font-family="sans-serif" font-size="14" lengthAdjust="spacing" textLength="67.1289" x="84.29" y="408.4551">one: User</text><rect fill="none" height="6" style="stroke:#C82930;stroke-width:1;" width="6" x="72.29" y="418.4053"/><text fill="#000000" font-family="sans-serif" font-size="14" lengthAdjust="spacing" textLength="66.582" x="84.29" y="424.752">two: User</text><rect fill="none" height="6" style="stroke:#C82930;stroke-width:1;" width="6" x="72.29" y="434.7022"/><text fill="#000000" font-family="sans-serif" font-size="14" lengthAdjust="spacing" textLength="151.6621" x="84.29" y="441.0489">messages: Message[]</text><line style="stroke:#181818;stroke-width:0.5;" x1="65.29" x2="241.0683" y1="448.3506" y2="448.3506"/><ellipse cx="75.29" cy="461.9991" fill="#84BE84" rx="3" ry="3" style="stroke:#038048;stroke-width:1;"/><text fill="#000000" font-family="sans-serif" font-size="14" lengthAdjust="spacing" textLength="147.1025" x="84.29" y="465.3457">send_message(text);</text><ellipse cx="75.29" cy="478.2959" fill="#84BE84" rx="3" ry="3" style="stroke:#038048;stroke-width:1;"/><text fill="#000000" font-family="sans-serif" font-size="14" lengthAdjust="spacing" textLength="151.7783" x="84.29" y="481.6426">get_new_messages();</text></g><!--class User--><g id="elem_User"><rect codeLine="59" fill="#F1F1F1" height="64.2969" id="User" rx="2.5" ry="2.5" style="stroke:#181818;stroke-width:0.5;" width="150.3594" x="7" y="597.83"/><ellipse cx="61.9746" cy="613.83" fill="#ADD1B2" rx="11" ry="11" style="stroke:#181818;stroke-width:1;"/><path d="M64.9434,619.4706 Q64.3652,619.7675 63.7246,619.9081 Q63.084,620.0644 62.3809,620.0644 Q59.8809,620.0644 58.5527,618.4238 Q57.2402,616.7675 57.2402,613.6425 Q57.2402,610.5175 58.5527,608.8613 Q59.8809,607.205 62.3809,607.205 Q63.084,607.205 63.7246,607.3613 Q64.3809,607.5175 64.9434,607.8144 L64.9434,610.5331 Q64.3184,609.955 63.7246,609.6894 Q63.1309,609.4081 62.5059,609.4081 Q61.1621,609.4081 60.4746,610.4863 Q59.7871,611.5488 59.7871,613.6425 Q59.7871,615.7363 60.4746,616.8144 Q61.1621,617.8769 62.5059,617.8769 Q63.1309,617.8769 63.7246,617.6113 Q64.3184,617.33 64.9434,616.7519 L64.9434,619.4706 Z " fill="#000000"/><text fill="#000000" font-family="sans-serif" font-size="14" lengthAdjust="spacing" textLength="31.9102" x="82.4746" y="618.6767">User</text><line style="stroke:#181818;stroke-width:0.5;" x1="8" x2="156.3594" y1="629.83" y2="629.83"/><ellipse cx="18" cy="643.4784" fill="none" rx="3" ry="3" style="stroke:#038048;stroke-width:1;"/><text fill="#000000" font-family="sans-serif" font-size="14" lengthAdjust="spacing" textLength="124.3594" x="27" y="646.8251">user_id: long long</text><line style="stroke:#181818;stroke-width:0.5;" x1="8" x2="156.3594" y1="654.1269" y2="654.1269"/></g><!--link Advert to AdvertState--><g id="link_Advert_AdvertState"><path codeLine="45" d="M509.4,424.2 C521,424.2 514.6,424.2 526.19,424.2 " fill="none" id="Advert-AdvertState" style="stroke:#181818;stroke-width:1;"/><polygon fill="none" points="497.4,424.2,503.4,428.2,509.4,424.2,503.4,420.2,497.4,424.2" style="stroke:#181818;stroke-width:1;"/><polygon fill="#181818" points="532.19,424.2,523.19,420.2,527.19,424.2,523.19,428.2,532.19,424.2" style="stroke:#181818;stroke-width:1;"/></g><!--link ActiveAdvert to Advert--><g id="link_ActiveAdvert_Advert"><path codeLine="46" d="M567.8,152.81 C545.19,186.65 504.8026,247.1106 466.0426,305.1406 " fill="none" id="ActiveAdvert-to-Advert" style="stroke:#181818;stroke-width:1;"/><polygon fill="#181818" points="462.71,310.13,471.0351,304.8676,465.4871,305.9722,464.3826,300.4242,462.71,310.13" style="stroke:#181818;stroke-width:1;"/></g><!--link InactiveAdvert to Advert--><g id="link_InactiveAdvert_Advert"><path codeLine="47" d="M411.14,152.81 C408.14,186.65 402.8694,246.1234 397.7294,304.1534 " fill="none" id="InactiveAdvert-to-Advert" style="stroke:#181818;stroke-width:1;"/><polygon fill="#181818" points="397.2,310.13,401.9785,301.518,397.6411,305.1495,394.0097,300.8122,397.2,310.13" style="stroke:#181818;stroke-width:1;"/></g><!--link ActiveAdvert to AdvertState--><g id="link_ActiveAdvert_AdvertState"><path codeLine="48" d="M583.73,152.81 C584.97,204.96 587.5802,314.1651 589.0002,373.6151 " fill="none" id="ActiveAdvert-to-AdvertState" style="stroke:#181818;stroke-width:1;"/><polygon fill="none" points="589.43,391.61,594.9985,373.4719,583.0019,373.7584,589.43,391.61" style="stroke:#181818;stroke-width:1;"/></g><!--link InactiveAdvert to AdvertState--><g id="link_InactiveAdvert_AdvertState"><path codeLine="49" d="M427.07,152.81 C458.53,204.96 525.9629,316.7469 561.8229,376.1969 " fill="none" id="InactiveAdvert-to-AdvertState" style="stroke:#181818;stroke-width:1;"/><polygon fill="none" points="571.12,391.61,566.9606,373.0979,556.6852,379.2959,571.12,391.61" style="stroke:#181818;stroke-width:1;"/></g><!--reverse link App to Advert--><g id="link_App_Advert"><path codeLine="63" d="M257.1884,260.2048 C272.9184,279.9448 281.69,290.93 297.26,310.45 " fill="none" id="App-backto-Advert" style="stroke:#181818;stroke-width:1;"/><polygon fill="#181818" points="249.71,250.82,250.3209,258.0052,257.1884,260.2048,256.5774,253.0196,249.71,250.82" style="stroke:#181818;stroke-width:1;"/></g><!--reverse link App to Chat--><g id="link_App_Chat"><path codeLine="64" d="M153.18,262.82 C153.18,299.92 153.18,327.28 153.18,359 " fill="none" id="App-backto-Chat" style="stroke:#181818;stroke-width:1;"/><polygon fill="#181818" points="153.18,250.82,149.18,256.82,153.18,262.82,157.18,256.82,153.18,250.82" style="stroke:#181818;stroke-width:1;"/></g><!--link App to User--><g id="link_App_User"><path codeLine="65" d="M70.71,250.89 C61.03,270.14 52.66,290.38 47.18,310.57 C20.71,408.04 28.77,438.52 47.18,537.83 C50.98,558.33 59.21,580.18 66.73,597.34 " fill="none" id="App-User" style="stroke:#181818;stroke-width:1;"/></g><!--link Chat to User--><g id="link_Chat_User"><path codeLine="67" d="M130.81,489.4 C118.25,525.45 103.14,568.82 93.13,597.55 " fill="none" id="Chat-User" style="stroke:#181818;stroke-width:1;"/></g><!--SRC=[TLDDJyGW4BtpApXsNVa3c9XiF7dmP3mPGx1CkyGM6g2x9gl_tO52jwrw8JDlFdZp6EfEUayFmq0lXDMZ4wC7n-aBdkWVPU3q0K_2f3g12vxJGp9UtyZU3c14pAbsTsJlmIZHW_UoXGIq48I1Sy5y0ci7Ce2OkkMwa5sXJMChPsqlpDZVKgcKmzgOrCkFKYIK5RuFnrJSGAYFEJ1TqEWkW2iGqWCvY4Ox7sPIoHED7P7mbSWt8TfWQIDho4C-1-IAmkmNLs9QFMbM1ts2AP5UPlZHoBy31I3CnxPyUGTXPMfEaKHKEutEgGzEcnQVmdfy2cN7zmwcAI9IxGgMXInjPXMl2iT-rK9INth48mA9Dv99EYczTbS2v54ikryDiLA4pK6oaMGHsLHyhVlzgjl4ix1nFwEira1Pt72snIpRn-dJPCNDNUrgWC_mtxxEhnURnKs8tqDenMbdJPkE90Z-dnl6vh6octvETD1ER4ZYMhmV]--></g></svg>