<svg xmlns="http://www.w3.org/2000/svg" xmlns:xlink="http://www.w3.org/1999/xlink" contentStyleType="text/css" height="734px" preserveAspectRatio="none" style="width:671px;height:734px;background:#FFFFFF;" version="1.1" viewBox="0 0 671 734" width="671px" zoomAndPan="magnify"><defs/><g><!--class App--><g id="elem_App"><rect codeLine="8" fill="#F1F1F1" height="259.8594" id="App" rx="2.5" ry="2.5" style="stroke:#181818;stroke-width:0.5;" width="288.0215" x="50.88" y="7"/><ellipse cx="176.9654" cy="23" fill="#ADD1B2" rx="11" ry="11" style="stroke:#181818;stroke-width:1;"/><path d="M179.9342,28.6406 Q179.3561,28.9375 178.7154,29.0781 Q178.0748,29.2344 177.3717,29.2344 Q174.8717,29.2344 173.5436,27.5938 Q172.2311,25.9375 172.2311,22.8125 Q172.2311,19.6875 173.5436,18.0313 Q174.8717,16.375 177.3717,16.375 Q178.0748,16.375 178.7154,16.5313 Q179.3717,16.6875 179.9342,16.9844 L179.9342,19.7031 Q179.3092,19.125 178.7154,18.8594 Q178.1217,18.5781 177.4967,18.5781 Q176.1529,18.5781 175.4654,19.6563 Q174.7779,20.7188 174.7779,22.8125 Q174.7779,24.9063 175.4654,25.9844 Q176.1529,27.0469 177.4967,27.0469 Q178.1217,27.0469 178.7154,26.7813 Q179.3092,26.5 179.9342,25.9219 L179.9342,28.6406 Z " fill="#000000"/><text fill="#000000" font-family="sans-serif" font-size="14" lengthAdjust="spacing" textLength="27.3506" x="197.4654" y="27.8467">App</text><line style="stroke:#181818;stroke-width:0.5;" x1="51.88" x2="337.9015" y1="39" y2="39"/><rect fill="none" height="6" style="stroke:#C82930;stroke-width:1;" width="6" x="58.88" y="49.6484"/><text fill="#000000" font-family="sans-serif" font-size="14" lengthAdjust="spacing" textLength="100.9395" x="70.88" y="55.9951">cur_user: User</text><rect fill="none" height="6" style="stroke:#C82930;stroke-width:1;" width="6" x="58.88" y="65.9453"/><text fill="#000000" font-family="sans-serif" font-size="14" lengthAdjust="spacing" textLength="72.5225" x="70.88" y="72.292">chat: Chat</text><rect fill="none" height="6" style="stroke:#C82930;stroke-width:1;" width="6" x="58.88" y="82.2422"/><text fill="#000000" font-family="sans-serif" font-size="14" lengthAdjust="spacing" textLength="119.6016" x="70.88" y="88.5889">adverts: Advert[]</text><line style="stroke:#181818;stroke-width:0.5;" x1="51.88" x2="337.9015" y1="95.8906" y2="95.8906"/><ellipse cx="61.88" cy="109.5391" fill="#84BE84" rx="3" ry="3" style="stroke:#038048;stroke-width:1;"/><text fill="#000000" font-family="sans-serif" font-size="14" lengthAdjust="spacing" textLength="88.2178" x="70.88" y="112.8857">open_chat();</text><ellipse cx="61.88" cy="125.8359" fill="#84BE84" rx="3" ry="3" style="stroke:#038048;stroke-width:1;"/><text fill="#000000" font-family="sans-serif" font-size="14" lengthAdjust="spacing" textLength="119.2256" x="70.88" y="129.1826">send_message();</text><ellipse cx="61.88" cy="142.1328" fill="#84BE84" rx="3" ry="3" style="stroke:#038048;stroke-width:1;"/><text fill="#000000" font-family="sans-serif" font-size="14" lengthAdjust="spacing" textLength="151.7783" x="70.88" y="145.4795">get_new_messages();</text><ellipse cx="61.88" cy="158.4297" fill="#84BE84" rx="3" ry="3" style="stroke:#038048;stroke-width:1;"/><text fill="#000000" font-family="sans-serif" font-size="14" lengthAdjust="spacing" textLength="112.998" x="70.88" y="161.7764">create_advert();</text><ellipse cx="61.88" cy="174.7266" fill="#84BE84" rx="3" ry="3" style="stroke:#038048;stroke-width:1;"/><text fill="#000000" font-family="sans-serif" font-size="14" lengthAdjust="spacing" textLength="262.0215" x="70.88" y="178.0732">set_advert_info(room_num, address);</text><ellipse cx="61.88" cy="191.0234" fill="#84BE84" rx="3" ry="3" style="stroke:#038048;stroke-width:1;"/><text fill="#000000" font-family="sans-serif" font-size="14" lengthAdjust="spacing" textLength="173.9336" x="70.88" y="194.3701">make_advert_do_smth();</text><ellipse cx="61.88" cy="207.3203" fill="#84BE84" rx="3" ry="3" style="stroke:#038048;stroke-width:1;"/><text fill="#000000" font-family="sans-serif" font-size="14" lengthAdjust="spacing" textLength="111.1455" x="70.88" y="210.667">fetch_adverts();</text><ellipse cx="61.88" cy="223.6172" fill="#84BE84" rx="3" ry="3" style="stroke:#038048;stroke-width:1;"/><text fill="#000000" font-family="sans-serif" font-size="14" lengthAdjust="spacing" textLength="192.1172" x="70.88" y="226.9639">filter_adverts_cheap_first();</text><ellipse cx="61.88" cy="239.9141" fill="#84BE84" rx="3" ry="3" style="stroke:#038048;stroke-width:1;"/><text fill="#000000" font-family="sans-serif" font-size="14" lengthAdjust="spacing" textLength="172.7236" x="70.88" y="243.2607">get_first_found_advert();</text><ellipse cx="61.88" cy="256.2109" fill="#84BE84" rx="3" ry="3" style="stroke:#038048;stroke-width:1;"/><text fill="#000000" font-family="sans-serif" font-size="14" lengthAdjust="spacing" textLength="116.1494" x="70.88" y="259.5576">apply_for_rent();</text></g><!--class AdvertState--><g id="elem_AdvertState"><rect codeLine="24" fill="#F1F1F1" height="64.2969" id="AdvertState" rx="2.5" ry="2.5" style="stroke:#181818;stroke-width:0.5;" width="115.665" x="546.06" y="432.79"/><ellipse cx="561.06" cy="448.79" fill="#B4A7E5" rx="11" ry="11" style="stroke:#181818;stroke-width:1;"/><path d="M556.9819,444.5556 L556.9819,442.3994 L564.3725,442.3994 L564.3725,444.5556 L561.9038,444.5556 L561.9038,452.6337 L564.3725,452.6337 L564.3725,454.79 L556.9819,454.79 L556.9819,452.6337 L559.4506,452.6337 L559.4506,444.5556 L556.9819,444.5556 Z " fill="#000000"/><text fill="#000000" font-family="sans-serif" font-size="14" font-style="italic" lengthAdjust="spacing" textLength="83.665" x="575.06" y="453.6367">AdvertState</text><line style="stroke:#181818;stroke-width:0.5;" x1="547.06" x2="660.725" y1="464.79" y2="464.79"/><line style="stroke:#181818;stroke-width:0.5;" x1="547.06" x2="660.725" y1="472.79" y2="472.79"/><ellipse cx="557.06" cy="486.4384" fill="#84BE84" rx="3" ry="3" style="stroke:#038048;stroke-width:1;"/><text fill="#000000" font-family="sans-serif" font-size="14" lengthAdjust="spacing" textLength="75.3867" x="566.06" y="489.7851">do_smth();</text></g><!--class ActiveAdvert--><g id="elem_ActiveAdvert"><rect codeLine="28" fill="#F1F1F1" height="48" id="ActiveAdvert" rx="2.5" ry="2.5" style="stroke:#181818;stroke-width:0.5;" width="122.1592" x="542.81" y="112.93"/><ellipse cx="557.81" cy="128.93" fill="#ADD1B2" rx="11" ry="11" style="stroke:#181818;stroke-width:1;"/><path d="M560.7788,134.5706 Q560.2006,134.8675 559.56,135.0081 Q558.9194,135.1644 558.2163,135.1644 Q555.7163,135.1644 554.3881,133.5237 Q553.0756,131.8675 553.0756,128.7425 Q553.0756,125.6175 554.3881,123.9612 Q555.7163,122.305 558.2163,122.305 Q558.9194,122.305 559.56,122.4612 Q560.2163,122.6175 560.7788,122.9144 L560.7788,125.6331 Q560.1538,125.055 559.56,124.7894 Q558.9663,124.5081 558.3413,124.5081 Q556.9975,124.5081 556.31,125.5862 Q555.6225,126.6487 555.6225,128.7425 Q555.6225,130.8362 556.31,131.9144 Q556.9975,132.9769 558.3413,132.9769 Q558.9663,132.9769 559.56,132.7112 Q560.1538,132.43 560.7788,131.8519 L560.7788,134.5706 Z " fill="#000000"/><text fill="#000000" font-family="sans-serif" font-size="14" lengthAdjust="spacing" textLength="90.1592" x="571.81" y="133.7767">ActiveAdvert</text><line style="stroke:#181818;stroke-width:0.5;" x1="543.81" x2="663.9692" y1="144.93" y2="144.93"/><line style="stroke:#181818;stroke-width:0.5;" x1="543.81" x2="663.9692" y1="152.93" y2="152.93"/></g><!--class InactiveAdvert--><g id="elem_InactiveAdvert"><rect codeLine="30" fill="#F1F1F1" height="48" id="InactiveAdvert" rx="2.5" ry="2.5" style="stroke:#181818;stroke-width:0.5;" width="134.1631" x="373.81" y="112.93"/><ellipse cx="388.81" cy="128.93" fill="#ADD1B2" rx="11" ry="11" style="stroke:#181818;stroke-width:1;"/><path d="M391.7788,134.5706 Q391.2006,134.8675 390.56,135.0081 Q389.9194,135.1644 389.2163,135.1644 Q386.7163,135.1644 385.3881,133.5237 Q384.0756,131.8675 384.0756,128.7425 Q384.0756,125.6175 385.3881,123.9612 Q386.7163,122.305 389.2163,122.305 Q389.9194,122.305 390.56,122.4612 Q391.2163,122.6175 391.7788,122.9144 L391.7788,125.6331 Q391.1538,125.055 390.56,124.7894 Q389.9663,124.5081 389.3413,124.5081 Q387.9975,124.5081 387.31,125.5862 Q386.6225,126.6487 386.6225,128.7425 Q386.6225,130.8362 387.31,131.9144 Q387.9975,132.9769 389.3413,132.9769 Q389.9663,132.9769 390.56,132.7112 Q391.1538,132.43 391.7788,131.8519 L391.7788,134.5706 Z " fill="#000000"/><text fill="#000000" font-family="sans-serif" font-size="14" lengthAdjust="spacing" textLength="102.1631" x="402.81" y="133.7767">InactiveAdvert</text><line style="stroke:#181818;stroke-width:0.5;" x1="374.81" x2="506.9731" y1="144.93" y2="144.93"/><line style="stroke:#181818;stroke-width:0.5;" x1="374.81" x2="506.9731" y1="152.93" y2="152.93"/></g><!--class Advert--><g id="elem_Advert"><rect codeLine="32" fill="#F1F1F1" height="276.1563" id="Advert" rx="2.5" ry="2.5" style="stroke:#181818;stroke-width:0.5;" width="219.8535" x="290.96" y="326.86"/><ellipse cx="373.333" cy="342.86" fill="#ADD1B2" rx="11" ry="11" style="stroke:#181818;stroke-width:1;"/><path d="M376.3018,348.5006 Q375.7237,348.7975 375.083,348.9381 Q374.4424,349.0944 373.7393,349.0944 Q371.2393,349.0944 369.9112,347.4537 Q368.5987,345.7975 368.5987,342.6725 Q368.5987,339.5475 369.9112,337.8912 Q371.2393,336.235 373.7393,336.235 Q374.4424,336.235 375.083,336.3912 Q375.7393,336.5475 376.3018,336.8444 L376.3018,339.5631 Q375.6768,338.985 375.083,338.7194 Q374.4893,338.4381 373.8643,338.4381 Q372.5205,338.4381 371.833,339.5162 Q371.1455,340.5787 371.1455,342.6725 Q371.1455,344.7662 371.833,345.8444 Q372.5205,346.9069 373.8643,346.9069 Q374.4893,346.9069 375.083,346.6412 Q375.6768,346.36 376.3018,345.7819 L376.3018,348.5006 Z " fill="#000000"/><text fill="#000000" font-family="sans-serif" font-size="14" lengthAdjust="spacing" textLength="46.6074" x="393.833" y="347.7067">Advert</text><line style="stroke:#181818;stroke-width:0.5;" x1="291.96" x2="509.8135" y1="358.86" y2="358.86"/><rect fill="none" height="6" style="stroke:#C82930;stroke-width:1;" width="6" x="298.96" y="369.5084"/><text fill="#000000" font-family="sans-serif" font-size="14" lengthAdjust="spacing" textLength="128.2969" x="310.96" y="375.8551">state: AdvertState</text><rect fill="none" height="6" style="stroke:#C82930;stroke-width:1;" width="6" x="298.96" y="385.8053"/><text fill="#000000" font-family="sans-serif" font-size="14" lengthAdjust="spacing" textLength="102.3271" x="310.96" y="392.152">room_num: int</text><rect fill="none" height="6" style="stroke:#C82930;stroke-width:1;" width="6" x="298.96" y="402.1022"/><text fill="#000000" font-family="sans-serif" font-size="14" lengthAdjust="spacing" textLength="104.665" x="310.96" y="408.4489">address: string</text><rect fill="none" height="6" style="stroke:#C82930;stroke-width:1;" width="6" x="298.96" y="418.3991"/><text fill="#000000" font-family="sans-serif" font-size="14" lengthAdjust="spacing" textLength="85.9277" x="310.96" y="424.7457">cost: double</text><rect fill="none" height="6" style="stroke:#C82930;stroke-width:1;" width="6" x="298.96" y="434.6959"/><text fill="#000000" font-family="sans-serif" font-size="14" lengthAdjust="spacing" textLength="84.335" x="310.96" y="441.0426">owner: User</text><rect fill="none" height="6" style="stroke:#C82930;stroke-width:1;" width="6" x="298.96" y="450.9928"/><text fill="#000000" font-family="sans-serif" font-size="14" lengthAdjust="spacing" textLength="84.1777" x="310.96" y="457.3395">renter: User</text><line style="stroke:#181818;stroke-width:0.5;" x1="291.96" x2="509.8135" y1="464.6412" y2="464.6412"/><ellipse cx="301.96" cy="478.2897" fill="#84BE84" rx="3" ry="3" style="stroke:#038048;stroke-width:1;"/><text fill="#000000" font-family="sans-serif" font-size="14" lengthAdjust="spacing" textLength="131.5576" x="310.96" y="481.6364">get_cost(): double;</text><ellipse cx="301.96" cy="494.5866" fill="#84BE84" rx="3" ry="3" style="stroke:#038048;stroke-width:1;"/><text fill="#000000" font-family="sans-serif" font-size="14" lengthAdjust="spacing" textLength="193.8535" x="310.96" y="497.9332">set_room_num(room_num);</text><ellipse cx="301.96" cy="510.8834" fill="#84BE84" rx="3" ry="3" style="stroke:#038048;stroke-width:1;"/><text fill="#000000" font-family="sans-serif" font-size="14" lengthAdjust="spacing" textLength="145.7695" x="310.96" y="514.2301">set_adress(address);</text><ellipse cx="301.96" cy="527.1803" fill="#84BE84" rx="3" ry="3" style="stroke:#038048;stroke-width:1;"/><text fill="#000000" font-family="sans-serif" font-size="14" lengthAdjust="spacing" textLength="102.1289" x="310.96" y="530.527">set_cost(cost);</text><ellipse cx="301.96" cy="543.4772" fill="#84BE84" rx="3" ry="3" style="stroke:#038048;stroke-width:1;"/><text fill="#000000" font-family="sans-serif" font-size="14" lengthAdjust="spacing" textLength="130.2383" x="310.96" y="546.8239">set_renter(renter);</text><ellipse cx="301.96" cy="559.7741" fill="#84BE84" rx="3" ry="3" style="stroke:#038048;stroke-width:1;"/><text fill="#000000" font-family="sans-serif" font-size="14" lengthAdjust="spacing" textLength="72.2627" x="310.96" y="563.1207">activate();</text><ellipse cx="301.96" cy="576.0709" fill="#84BE84" rx="3" ry="3" style="stroke:#038048;stroke-width:1;"/><text fill="#000000" font-family="sans-serif" font-size="14" lengthAdjust="spacing" textLength="85.0391" x="310.96" y="579.4176">diactivate();</text><ellipse cx="301.96" cy="592.3678" fill="#84BE84" rx="3" ry="3" style="stroke:#038048;stroke-width:1;"/><text fill="#000000" font-family="sans-serif" font-size="14" lengthAdjust="spacing" textLength="75.3867" x="310.96" y="595.7145">do_smth();</text></g><!--class Chat--><g id="elem_Chat"><rect codeLine="55" fill="#F1F1F1" height="129.4844" id="Chat" rx="2.5" ry="2.5" style="stroke:#181818;stroke-width:0.5;" width="177.7783" x="7" y="400.19"/><ellipse cx="75.2808" cy="416.19" fill="#ADD1B2" rx="11" ry="11" style="stroke:#181818;stroke-width:1;"/><path d="M78.2495,421.8306 Q77.6714,422.1275 77.0308,422.2681 Q76.3901,422.4244 75.687,422.4244 Q73.187,422.4244 71.8589,420.7837 Q70.5464,419.1275 70.5464,416.0025 Q70.5464,412.8775 71.8589,411.2212 Q73.187,409.565 75.687,409.565 Q76.3901,409.565 77.0308,409.7212 Q77.687,409.8775 78.2495,410.1744 L78.2495,412.8931 Q77.6245,412.315 77.0308,412.0494 Q76.437,411.7681 75.812,411.7681 Q74.4683,411.7681 73.7808,412.8462 Q73.0933,413.9087 73.0933,416.0025 Q73.0933,418.0962 73.7808,419.1744 Q74.4683,420.2369 75.812,420.2369 Q76.437,420.2369 77.0308,419.9712 Q77.6245,419.69 78.2495,419.1119 L78.2495,421.8306 Z " fill="#000000"/><text fill="#000000" font-family="sans-serif" font-size="14" lengthAdjust="spacing" textLength="32.7168" x="95.7808" y="421.0367">Chat</text><line style="stroke:#181818;stroke-width:0.5;" x1="8" x2="183.7783" y1="432.19" y2="432.19"/><rect fill="none" height="6" style="stroke:#C82930;stroke-width:1;" width="6" x="15" y="442.8384"/><text fill="#000000" font-family="sans-serif" font-size="14" lengthAdjust="spacing" textLength="67.1289" x="27" y="449.1851">one: User</text><rect fill="none" height="6" style="stroke:#C82930;stroke-width:1;" width="6" x="15" y="459.1353"/><text fill="#000000" font-family="sans-serif" font-size="14" lengthAdjust="spacing" textLength="66.582" x="27" y="465.482">two: User</text><rect fill="none" height="6" style="stroke:#C82930;stroke-width:1;" width="6" x="15" y="475.4322"/><text fill="#000000" font-family="sans-serif" font-size="14" lengthAdjust="spacing" textLength="151.6621" x="27" y="481.7789">messages: Message[]</text><line style="stroke:#181818;stroke-width:0.5;" x1="8" x2="183.7783" y1="489.0806" y2="489.0806"/><ellipse cx="18" cy="502.7291" fill="#84BE84" rx="3" ry="3" style="stroke:#038048;stroke-width:1;"/><text fill="#000000" font-family="sans-serif" font-size="14" lengthAdjust="spacing" textLength="147.1025" x="27" y="506.0757">send_message(text);</text><ellipse cx="18" cy="519.0259" fill="#84BE84" rx="3" ry="3" style="stroke:#038048;stroke-width:1;"/><text fill="#000000" font-family="sans-serif" font-size="14" lengthAdjust="spacing" textLength="151.7783" x="27" y="522.3726">get_new_messages();</text></g><!--class User--><g id="elem_User"><rect codeLine="63" fill="#F1F1F1" height="64.2969" id="User" rx="2.5" ry="2.5" style="stroke:#181818;stroke-width:0.5;" width="150.3594" x="162.71" y="663.01"/><ellipse cx="217.6846" cy="679.01" fill="#ADD1B2" rx="11" ry="11" style="stroke:#181818;stroke-width:1;"/><path d="M220.6534,684.6506 Q220.0752,684.9475 219.4346,685.0881 Q218.794,685.2444 218.0909,685.2444 Q215.5909,685.2444 214.2627,683.6038 Q212.9502,681.9475 212.9502,678.8225 Q212.9502,675.6975 214.2627,674.0413 Q215.5909,672.385 218.0909,672.385 Q218.794,672.385 219.4346,672.5413 Q220.0909,672.6975 220.6534,672.9944 L220.6534,675.7131 Q220.0284,675.135 219.4346,674.8694 Q218.8409,674.5881 218.2159,674.5881 Q216.8721,674.5881 216.1846,675.6663 Q215.4971,676.7288 215.4971,678.8225 Q215.4971,680.9163 216.1846,681.9944 Q216.8721,683.0569 218.2159,683.0569 Q218.8409,683.0569 219.4346,682.7913 Q220.0284,682.51 220.6534,681.9319 L220.6534,684.6506 Z " fill="#000000"/><text fill="#000000" font-family="sans-serif" font-size="14" lengthAdjust="spacing" textLength="31.9102" x="238.1846" y="683.8567">User</text><line style="stroke:#181818;stroke-width:0.5;" x1="163.71" x2="312.0694" y1="695.01" y2="695.01"/><ellipse cx="173.71" cy="708.6584" fill="none" rx="3" ry="3" style="stroke:#038048;stroke-width:1;"/><text fill="#000000" font-family="sans-serif" font-size="14" lengthAdjust="spacing" textLength="124.3594" x="182.71" y="712.0051">user_id: long long</text><line style="stroke:#181818;stroke-width:0.5;" x1="163.71" x2="312.0694" y1="719.3069" y2="719.3069"/></g><!--link Advert to AdvertState--><g id="link_Advert_AdvertState"><path codeLine="49" d="M523.11,464.94 C534.71,464.94 528.31,464.94 539.9,464.94 " fill="none" id="Advert-AdvertState" style="stroke:#181818;stroke-width:1;"/><polygon fill="none" points="511.11,464.94,517.11,468.94,523.11,464.94,517.11,460.94,511.11,464.94" style="stroke:#181818;stroke-width:1;"/><polygon fill="#181818" points="545.9,464.94,536.9,460.94,540.9,464.94,536.9,468.94,545.9,464.94" style="stroke:#181818;stroke-width:1;"/></g><!--link ActiveAdvert to Advert--><g id="link_ActiveAdvert_Advert"><path codeLine="50" d="M589.95,161.31 C574.45,187.21 548.62,230.16 525.89,266.86 C513.89,286.23 504.32,301.5346 491.71,321.5346 " fill="none" id="ActiveAdvert-to-Advert" style="stroke:#181818;stroke-width:1;"/><polygon fill="#181818" points="488.51,326.61,496.6937,321.1303,491.1767,322.3805,489.9265,316.8635,488.51,326.61" style="stroke:#181818;stroke-width:1;"/></g><!--link InactiveAdvert to Advert--><g id="link_InactiveAdvert_Advert"><path codeLine="51" d="M438.01,161.37 C433.75,196.12 426.1611,257.9847 418.4711,320.6247 " fill="none" id="InactiveAdvert-to-Advert" style="stroke:#181818;stroke-width:1;"/><polygon fill="#181818" points="417.74,326.58,422.8068,318.1345,418.3493,321.6173,414.8665,317.1597,417.74,326.58" style="stroke:#181818;stroke-width:1;"/></g><!--link ActiveAdvert to AdvertState--><g id="link_ActiveAdvert_AdvertState"><path codeLine="52" d="M603.89,161.37 C603.89,218.9 603.89,349.06 603.89,414.3 " fill="none" id="ActiveAdvert-to-AdvertState" style="stroke:#181818;stroke-width:1;"/><polygon fill="none" points="603.89,432.3,609.89,414.3,597.89,414.3,603.89,432.3" style="stroke:#181818;stroke-width:1;"/></g><!--link InactiveAdvert to AdvertState--><g id="link_InactiveAdvert_AdvertState"><path codeLine="53" d="M452.61,161.37 C481.37,218.9 547.4002,350.9603 580.0202,416.2003 " fill="none" id="InactiveAdvert-to-AdvertState" style="stroke:#181818;stroke-width:1;"/><polygon fill="none" points="588.07,432.3,585.3867,413.517,574.6536,418.8836,588.07,432.3" style="stroke:#181818;stroke-width:1;"/></g><!--reverse link App to Advert--><g id="link_App_Advert"><path codeLine="67" d="M283.0091,277.3851 C295.3091,296.8551 301.63,306.84 314.03,326.47 " fill="none" id="App-backto-Advert" style="stroke:#181818;stroke-width:1;"/><polygon fill="#181818" points="276.6,267.24,276.4228,274.4489,283.0091,277.3851,283.1863,270.1762,276.6,267.24" style="stroke:#181818;stroke-width:1;"/></g><!--reverse link App to Chat--><g id="link_App_Chat"><path codeLine="68" d="M152.1332,278.7223 C138.3132,324.2323 126.87,361.93 115.39,399.72 " fill="none" id="App-backto-Chat" style="stroke:#181818;stroke-width:1;"/><polygon fill="#181818" points="155.62,267.24,150.0492,271.8189,152.1332,278.7223,157.704,274.1434,155.62,267.24" style="stroke:#181818;stroke-width:1;"/></g><!--link App to User--><g id="link_App_User"><path codeLine="69" d="M204.89,267.29 C214.93,397.12 229.7,588.25 235.46,662.78 " fill="none" id="App-User" style="stroke:#181818;stroke-width:1;"/></g><!--link Chat to User--><g id="link_Chat_User"><path codeLine="71" d="M135.82,530.12 C162.73,573.36 197.05,628.52 218.24,662.58 " fill="none" id="Chat-User" style="stroke:#181818;stroke-width:1;"/></g><!--link Advert to User--><g id="link_Advert_User"><path codeLine="73" d="M302.78,603.3 C286.87,625.58 271.84,646.63 260.26,662.84 " fill="none" id="Advert-User" style="stroke:#181818;stroke-width:1;"/></g><!--SRC=[TLFDJiGW4Bxp51oxhhm09YORJnuy6K_642pJtSOM6g2xcjLtT_YrNVK2pFyttmpj89sZkscYPyBQsOhPWUNq2K-K3z9pUeSdOL8TmNh7wIu-db_8raoWHV1fDZTawq0hCO9pSWzHiGSlD9oApaLbQq5w42bRZlDP5BtkJ6ED6OMUnsigbR8O6vn6-LQ2X3B2ZVuGWplmxI4RKe6k7ppOea9u82VHzTRv2YfAeZCp0bu0aTCqVA3Q2Wiwghu8wJLcwsGBkUz7Z_2Hg-q21RgrYSRMzqT8ZlHSrVTQ_cqe2i9SICkNDGWhH72A8C808XkSEczxlSVf68VJKMP-7T3RdFJFu483LOez1-TcKzmpxQL2vVnd7g5KinY0Apd2KHIfJ9EkI67e4y57FbM_5bU4vTODkrqrlMAGLIEve71XkOZuNEVx5NTXpuC8Anx6O3GK2lt9b6TPO4uVqYii_shTFRpx_rQ-JZia2viJVfZe5QU3qVjuH4Bm2runLjlAOlnyGS1tH4CYrYhLnfBy3G00]--></g></svg>