<svg xmlns="http://www.w3.org/2000/svg" xmlns:xlink="http://www.w3.org/1999/xlink" contentStyleType="text/css" height="522px" preserveAspectRatio="none" style="width:628px;height:522px;background:#FFFFFF;" version="1.1" viewBox="0 0 628 522" width="628px" zoomAndPan="magnify"><defs/><g><!--class App--><g id="elem_App"><rect codeLine="8" fill="#F1F1F1" height="194.6719" id="App" rx="2.5" ry="2.5" style="stroke:#181818;stroke-width:0.5;" width="288.0215" x="7" y="7"/><ellipse cx="133.0854" cy="23" fill="#ADD1B2" rx="11" ry="11" style="stroke:#181818;stroke-width:1;"/><path d="M136.0542,28.6406 Q135.4761,28.9375 134.8354,29.0781 Q134.1948,29.2344 133.4917,29.2344 Q130.9917,29.2344 129.6636,27.5938 Q128.3511,25.9375 128.3511,22.8125 Q128.3511,19.6875 129.6636,18.0313 Q130.9917,16.375 133.4917,16.375 Q134.1948,16.375 134.8354,16.5313 Q135.4917,16.6875 136.0542,16.9844 L136.0542,19.7031 Q135.4292,19.125 134.8354,18.8594 Q134.2417,18.5781 133.6167,18.5781 Q132.2729,18.5781 131.5854,19.6563 Q130.8979,20.7188 130.8979,22.8125 Q130.8979,24.9063 131.5854,25.9844 Q132.2729,27.0469 133.6167,27.0469 Q134.2417,27.0469 134.8354,26.7813 Q135.4292,26.5 136.0542,25.9219 L136.0542,28.6406 Z " fill="#000000"/><text fill="#000000" font-family="sans-serif" font-size="14" lengthAdjust="spacing" textLength="27.3506" x="153.5854" y="27.8467">App</text><line style="stroke:#181818;stroke-width:0.5;" x1="8" x2="294.0215" y1="39" y2="39"/><rect fill="none" height="6" style="stroke:#C82930;stroke-width:1;" width="6" x="15" y="49.6484"/><text fill="#000000" font-family="sans-serif" font-size="14" lengthAdjust="spacing" textLength="100.9395" x="27" y="55.9951">cur_user: User</text><rect fill="none" height="6" style="stroke:#C82930;stroke-width:1;" width="6" x="15" y="65.9453"/><text fill="#000000" font-family="sans-serif" font-size="14" lengthAdjust="spacing" textLength="72.5225" x="27" y="72.292">chat: Chat</text><rect fill="none" height="6" style="stroke:#C82930;stroke-width:1;" width="6" x="15" y="82.2422"/><text fill="#000000" font-family="sans-serif" font-size="14" lengthAdjust="spacing" textLength="101.3838" x="27" y="88.5889">advert: Advert</text><line style="stroke:#181818;stroke-width:0.5;" x1="8" x2="294.0215" y1="95.8906" y2="95.8906"/><ellipse cx="18" cy="109.5391" fill="#84BE84" rx="3" ry="3" style="stroke:#038048;stroke-width:1;"/><text fill="#000000" font-family="sans-serif" font-size="14" lengthAdjust="spacing" textLength="88.2178" x="27" y="112.8857">open_chat();</text><ellipse cx="18" cy="125.8359" fill="#84BE84" rx="3" ry="3" style="stroke:#038048;stroke-width:1;"/><text fill="#000000" font-family="sans-serif" font-size="14" lengthAdjust="spacing" textLength="119.2256" x="27" y="129.1826">send_message();</text><ellipse cx="18" cy="142.1328" fill="#84BE84" rx="3" ry="3" style="stroke:#038048;stroke-width:1;"/><text fill="#000000" font-family="sans-serif" font-size="14" lengthAdjust="spacing" textLength="151.7783" x="27" y="145.4795">get_new_messages();</text><ellipse cx="18" cy="158.4297" fill="#84BE84" rx="3" ry="3" style="stroke:#038048;stroke-width:1;"/><text fill="#000000" font-family="sans-serif" font-size="14" lengthAdjust="spacing" textLength="112.998" x="27" y="161.7764">create_advert();</text><ellipse cx="18" cy="174.7266" fill="#84BE84" rx="3" ry="3" style="stroke:#038048;stroke-width:1;"/><text fill="#000000" font-family="sans-serif" font-size="14" lengthAdjust="spacing" textLength="262.0215" x="27" y="178.0732">set_advert_info(room_num, address);</text><ellipse cx="18" cy="191.0234" fill="#84BE84" rx="3" ry="3" style="stroke:#038048;stroke-width:1;"/><text fill="#000000" font-family="sans-serif" font-size="14" lengthAdjust="spacing" textLength="173.9336" x="27" y="194.3701">make_advert_do_smth();</text></g><!--class AdvertState--><g id="elem_AdvertState"><rect codeLine="20" fill="#F1F1F1" height="64.2969" id="AdvertState" rx="2.5" ry="2.5" style="stroke:#181818;stroke-width:0.5;" width="115.665" x="502.18" y="294.26"/><ellipse cx="517.18" cy="310.26" fill="#B4A7E5" rx="11" ry="11" style="stroke:#181818;stroke-width:1;"/><path d="M513.1019,306.0256 L513.1019,303.8694 L520.4925,303.8694 L520.4925,306.0256 L518.0238,306.0256 L518.0238,314.1038 L520.4925,314.1038 L520.4925,316.26 L513.1019,316.26 L513.1019,314.1038 L515.5706,314.1038 L515.5706,306.0256 L513.1019,306.0256 Z " fill="#000000"/><text fill="#000000" font-family="sans-serif" font-size="14" font-style="italic" lengthAdjust="spacing" textLength="83.665" x="531.18" y="315.1067">AdvertState</text><line style="stroke:#181818;stroke-width:0.5;" x1="503.18" x2="616.845" y1="326.26" y2="326.26"/><line style="stroke:#181818;stroke-width:0.5;" x1="503.18" x2="616.845" y1="334.26" y2="334.26"/><ellipse cx="513.18" cy="347.9084" fill="#84BE84" rx="3" ry="3" style="stroke:#038048;stroke-width:1;"/><text fill="#000000" font-family="sans-serif" font-size="14" lengthAdjust="spacing" textLength="75.3867" x="522.18" y="351.2551">do_smth();</text></g><!--class ActiveAdvert--><g id="elem_ActiveAdvert"><rect codeLine="24" fill="#F1F1F1" height="48" id="ActiveAdvert" rx="2.5" ry="2.5" style="stroke:#181818;stroke-width:0.5;" width="122.1592" x="498.93" y="80.33"/><ellipse cx="513.93" cy="96.33" fill="#ADD1B2" rx="11" ry="11" style="stroke:#181818;stroke-width:1;"/><path d="M516.8988,101.9706 Q516.3206,102.2675 515.68,102.4081 Q515.0394,102.5644 514.3363,102.5644 Q511.8363,102.5644 510.5081,100.9237 Q509.1956,99.2675 509.1956,96.1425 Q509.1956,93.0175 510.5081,91.3612 Q511.8363,89.705 514.3363,89.705 Q515.0394,89.705 515.68,89.8612 Q516.3363,90.0175 516.8988,90.3144 L516.8988,93.0331 Q516.2738,92.455 515.68,92.1894 Q515.0863,91.9081 514.4613,91.9081 Q513.1175,91.9081 512.43,92.9862 Q511.7425,94.0487 511.7425,96.1425 Q511.7425,98.2362 512.43,99.3144 Q513.1175,100.3769 514.4613,100.3769 Q515.0863,100.3769 515.68,100.1112 Q516.2738,99.83 516.8988,99.2519 L516.8988,101.9706 Z " fill="#000000"/><text fill="#000000" font-family="sans-serif" font-size="14" lengthAdjust="spacing" textLength="90.1592" x="527.93" y="101.1767">ActiveAdvert</text><line style="stroke:#181818;stroke-width:0.5;" x1="499.93" x2="620.0892" y1="112.33" y2="112.33"/><line style="stroke:#181818;stroke-width:0.5;" x1="499.93" x2="620.0892" y1="120.33" y2="120.33"/></g><!--class InactiveAdvert--><g id="elem_InactiveAdvert"><rect codeLine="26" fill="#F1F1F1" height="48" id="InactiveAdvert" rx="2.5" ry="2.5" style="stroke:#181818;stroke-width:0.5;" width="134.1631" x="329.93" y="80.33"/><ellipse cx="344.93" cy="96.33" fill="#ADD1B2" rx="11" ry="11" style="stroke:#181818;stroke-width:1;"/><path d="M347.8988,101.9706 Q347.3206,102.2675 346.68,102.4081 Q346.0394,102.5644 345.3363,102.5644 Q342.8363,102.5644 341.5081,100.9237 Q340.1956,99.2675 340.1956,96.1425 Q340.1956,93.0175 341.5081,91.3612 Q342.8363,89.705 345.3363,89.705 Q346.0394,89.705 346.68,89.8612 Q347.3363,90.0175 347.8988,90.3144 L347.8988,93.0331 Q347.2738,92.455 346.68,92.1894 Q346.0863,91.9081 345.4613,91.9081 Q344.1175,91.9081 343.43,92.9862 Q342.7425,94.0487 342.7425,96.1425 Q342.7425,98.2362 343.43,99.3144 Q344.1175,100.3769 345.4613,100.3769 Q346.0863,100.3769 346.68,100.1112 Q347.2738,99.83 347.8988,99.2519 L347.8988,101.9706 Z " fill="#000000"/><text fill="#000000" font-family="sans-serif" font-size="14" lengthAdjust="spacing" textLength="102.1631" x="358.93" y="101.1767">InactiveAdvert</text><line style="stroke:#181818;stroke-width:0.5;" x1="330.93" x2="463.0931" y1="112.33" y2="112.33"/><line style="stroke:#181818;stroke-width:0.5;" x1="330.93" x2="463.0931" y1="120.33" y2="120.33"/></g><!--class Advert--><g id="elem_Advert"><rect codeLine="28" fill="#F1F1F1" height="96.8906" id="Advert" rx="2.5" ry="2.5" style="stroke:#181818;stroke-width:0.5;" width="154.2969" x="312.86" y="277.97"/><ellipse cx="362.4547" cy="293.97" fill="#ADD1B2" rx="11" ry="11" style="stroke:#181818;stroke-width:1;"/><path d="M365.4235,299.6106 Q364.8454,299.9075 364.2047,300.0481 Q363.5641,300.2044 362.861,300.2044 Q360.361,300.2044 359.0329,298.5637 Q357.7204,296.9075 357.7204,293.7825 Q357.7204,290.6575 359.0329,289.0012 Q360.361,287.345 362.861,287.345 Q363.5641,287.345 364.2047,287.5012 Q364.861,287.6575 365.4235,287.9544 L365.4235,290.6731 Q364.7985,290.095 364.2047,289.8294 Q363.611,289.5481 362.986,289.5481 Q361.6422,289.5481 360.9547,290.6262 Q360.2672,291.6887 360.2672,293.7825 Q360.2672,295.8762 360.9547,296.9544 Q361.6422,298.0169 362.986,298.0169 Q363.611,298.0169 364.2047,297.7512 Q364.7985,297.47 365.4235,296.8919 L365.4235,299.6106 Z " fill="#000000"/><text fill="#000000" font-family="sans-serif" font-size="14" lengthAdjust="spacing" textLength="46.6074" x="382.9547" y="298.8167">Advert</text><line style="stroke:#181818;stroke-width:0.5;" x1="313.86" x2="466.1569" y1="309.97" y2="309.97"/><rect fill="none" height="6" style="stroke:#C82930;stroke-width:1;" width="6" x="320.86" y="320.6184"/><text fill="#000000" font-family="sans-serif" font-size="14" lengthAdjust="spacing" textLength="128.2969" x="332.86" y="326.9651">state: AdvertState</text><rect fill="none" height="6" style="stroke:#C82930;stroke-width:1;" width="6" x="320.86" y="336.9153"/><text fill="#000000" font-family="sans-serif" font-size="14" lengthAdjust="spacing" textLength="102.3271" x="332.86" y="343.262">int: room_num</text><rect fill="none" height="6" style="stroke:#C82930;stroke-width:1;" width="6" x="320.86" y="353.2122"/><text fill="#000000" font-family="sans-serif" font-size="14" lengthAdjust="spacing" textLength="104.665" x="332.86" y="359.5589">string: address</text><line style="stroke:#181818;stroke-width:0.5;" x1="313.86" x2="466.1569" y1="366.8606" y2="366.8606"/></g><!--class Chat--><g id="elem_Chat"><rect codeLine="40" fill="#F1F1F1" height="129.4844" id="Chat" rx="2.5" ry="2.5" style="stroke:#181818;stroke-width:0.5;" width="177.7783" x="81.12" y="261.67"/><ellipse cx="149.4008" cy="277.67" fill="#ADD1B2" rx="11" ry="11" style="stroke:#181818;stroke-width:1;"/><path d="M152.3695,283.3106 Q151.7914,283.6075 151.1508,283.7481 Q150.5101,283.9044 149.807,283.9044 Q147.307,283.9044 145.9789,282.2638 Q144.6664,280.6075 144.6664,277.4825 Q144.6664,274.3575 145.9789,272.7013 Q147.307,271.045 149.807,271.045 Q150.5101,271.045 151.1508,271.2013 Q151.807,271.3575 152.3695,271.6544 L152.3695,274.3731 Q151.7445,273.795 151.1508,273.5294 Q150.557,273.2481 149.932,273.2481 Q148.5883,273.2481 147.9008,274.3263 Q147.2133,275.3888 147.2133,277.4825 Q147.2133,279.5763 147.9008,280.6544 Q148.5883,281.7169 149.932,281.7169 Q150.557,281.7169 151.1508,281.4513 Q151.7445,281.17 152.3695,280.5919 L152.3695,283.3106 Z " fill="#000000"/><text fill="#000000" font-family="sans-serif" font-size="14" lengthAdjust="spacing" textLength="32.7168" x="169.9008" y="282.5167">Chat</text><line style="stroke:#181818;stroke-width:0.5;" x1="82.12" x2="257.8983" y1="293.67" y2="293.67"/><rect fill="none" height="6" style="stroke:#C82930;stroke-width:1;" width="6" x="89.12" y="304.3184"/><text fill="#000000" font-family="sans-serif" font-size="14" lengthAdjust="spacing" textLength="67.1289" x="101.12" y="310.6651">one: User</text><rect fill="none" height="6" style="stroke:#C82930;stroke-width:1;" width="6" x="89.12" y="320.6153"/><text fill="#000000" font-family="sans-serif" font-size="14" lengthAdjust="spacing" textLength="66.582" x="101.12" y="326.962">two: User</text><rect fill="none" height="6" style="stroke:#C82930;stroke-width:1;" width="6" x="89.12" y="336.9122"/><text fill="#000000" font-family="sans-serif" font-size="14" lengthAdjust="spacing" textLength="151.6621" x="101.12" y="343.2589">messages: Message[]</text><line style="stroke:#181818;stroke-width:0.5;" x1="82.12" x2="257.8983" y1="350.5606" y2="350.5606"/><ellipse cx="92.12" cy="364.2091" fill="#84BE84" rx="3" ry="3" style="stroke:#038048;stroke-width:1;"/><text fill="#000000" font-family="sans-serif" font-size="14" lengthAdjust="spacing" textLength="147.1025" x="101.12" y="367.5557">send_message(text);</text><ellipse cx="92.12" cy="380.5059" fill="#84BE84" rx="3" ry="3" style="stroke:#038048;stroke-width:1;"/><text fill="#000000" font-family="sans-serif" font-size="14" lengthAdjust="spacing" textLength="151.7783" x="101.12" y="383.8526">get_new_messages();</text></g><!--class User--><g id="elem_User"><rect codeLine="48" fill="#F1F1F1" height="64.2969" id="User" rx="2.5" ry="2.5" style="stroke:#181818;stroke-width:0.5;" width="150.3594" x="23.83" y="451.15"/><ellipse cx="78.8046" cy="467.15" fill="#ADD1B2" rx="11" ry="11" style="stroke:#181818;stroke-width:1;"/><path d="M81.7734,472.7906 Q81.1952,473.0875 80.5546,473.2281 Q79.914,473.3844 79.2109,473.3844 Q76.7109,473.3844 75.3827,471.7438 Q74.0702,470.0875 74.0702,466.9625 Q74.0702,463.8375 75.3827,462.1813 Q76.7109,460.525 79.2109,460.525 Q79.914,460.525 80.5546,460.6813 Q81.2109,460.8375 81.7734,461.1344 L81.7734,463.8531 Q81.1484,463.275 80.5546,463.0094 Q79.9609,462.7281 79.3359,462.7281 Q77.9921,462.7281 77.3046,463.8063 Q76.6171,464.8688 76.6171,466.9625 Q76.6171,469.0563 77.3046,470.1344 Q77.9921,471.1969 79.3359,471.1969 Q79.9609,471.1969 80.5546,470.9313 Q81.1484,470.65 81.7734,470.0719 L81.7734,472.7906 Z " fill="#000000"/><text fill="#000000" font-family="sans-serif" font-size="14" lengthAdjust="spacing" textLength="31.9102" x="99.3046" y="471.9967">User</text><line style="stroke:#181818;stroke-width:0.5;" x1="24.83" x2="173.1894" y1="483.15" y2="483.15"/><ellipse cx="34.83" cy="496.7984" fill="none" rx="3" ry="3" style="stroke:#038048;stroke-width:1;"/><text fill="#000000" font-family="sans-serif" font-size="14" lengthAdjust="spacing" textLength="124.3594" x="43.83" y="500.1451">user_id: long long</text><line style="stroke:#181818;stroke-width:0.5;" x1="24.83" x2="173.1894" y1="507.4469" y2="507.4469"/></g><!--link Advert to AdvertState--><g id="link_Advert_AdvertState"><path codeLine="34" d="M479.37,326.41 C490.83,326.41 484.29,326.41 495.75,326.41 " fill="none" id="Advert-AdvertState" style="stroke:#181818;stroke-width:1;"/><polygon fill="none" points="467.37,326.41,473.37,330.41,479.37,326.41,473.37,322.41,467.37,326.41" style="stroke:#181818;stroke-width:1;"/><polygon fill="#181818" points="501.75,326.41,492.75,322.41,496.75,326.41,492.75,330.41,501.75,326.41" style="stroke:#181818;stroke-width:1;"/></g><!--link ActiveAdvert to Advert--><g id="link_ActiveAdvert_Advert"><path codeLine="35" d="M542.14,128.47 C514.95,163.67 466.2479,226.7117 430.6379,272.8117 " fill="none" id="ActiveAdvert-to-Advert" style="stroke:#181818;stroke-width:1;"/><polygon fill="#181818" points="426.97,277.56,435.6374,272.8827,430.0266,273.603,429.3062,267.9922,426.97,277.56" style="stroke:#181818;stroke-width:1;"/></g><!--link InactiveAdvert to Advert--><g id="link_InactiveAdvert_Advert"><path codeLine="36" d="M396.27,128.47 C395.16,163.67 393.1912,225.463 391.7212,271.563 " fill="none" id="InactiveAdvert-to-Advert" style="stroke:#181818;stroke-width:1;"/><polygon fill="#181818" points="391.53,277.56,395.8148,268.6921,391.6894,272.5625,387.8189,268.4371,391.53,277.56" style="stroke:#181818;stroke-width:1;"/></g><!--link ActiveAdvert to AdvertState--><g id="link_ActiveAdvert_AdvertState"><path codeLine="37" d="M560.01,128.47 C560.01,168.09 560.01,230.97 560.01,275.78 " fill="none" id="ActiveAdvert-to-AdvertState" style="stroke:#181818;stroke-width:1;"/><polygon fill="none" points="560.01,293.78,566.01,275.78,554.01,275.78,560.01,293.78" style="stroke:#181818;stroke-width:1;"/></g><!--link InactiveAdvert to AdvertState--><g id="link_InactiveAdvert_AdvertState"><path codeLine="38" d="M414.15,128.47 C443.49,168.09 492.6885,234.504 525.8685,279.314 " fill="none" id="InactiveAdvert-to-AdvertState" style="stroke:#181818;stroke-width:1;"/><polygon fill="none" points="536.58,293.78,530.6905,275.7435,521.0465,282.8845,536.58,293.78" style="stroke:#181818;stroke-width:1;"/></g><!--reverse link App to Advert--><g id="link_App_Advert"><path codeLine="52" d="M264.6669,209.9893 C293.1369,236.2093 313.91,255.33 338.04,277.55 " fill="none" id="App-backto-Advert" style="stroke:#181818;stroke-width:1;"/><polygon fill="#181818" points="255.84,201.86,257.5437,208.867,264.6669,209.9893,262.9632,202.9824,255.84,201.86" style="stroke:#181818;stroke-width:1;"/></g><!--reverse link App to Chat--><g id="link_App_Chat"><path codeLine="53" d="M160.3749,213.8153 C162.1149,233.9153 162.87,242.66 164.47,261.24 " fill="none" id="App-backto-Chat" style="stroke:#181818;stroke-width:1;"/><polygon fill="#181818" points="159.34,201.86,155.8724,208.1826,160.3749,213.8153,163.8426,207.4927,159.34,201.86" style="stroke:#181818;stroke-width:1;"/></g><!--link App to User--><g id="link_App_User"><path codeLine="54" d="M87.53,201.78 C77.81,220.91 69.28,241.37 64.01,261.67 C49.56,317.37 53.52,334.57 64.01,391.15 C67.81,411.65 76.04,433.5 83.56,450.66 " fill="none" id="App-User" style="stroke:#181818;stroke-width:1;"/></g><!--link Chat to User--><g id="link_Chat_User"><path codeLine="56" d="M140.72,391.31 C131.33,411.81 121.33,433.61 113.48,450.74 " fill="none" id="Chat-User" style="stroke:#181818;stroke-width:1;"/></g><!--SRC=[TLBDJiCm3BxdANBSA7c1825Dd3XmGfmGYgB4wohMf4hSRTBWtOdJf5eBN9puvxC__vYZZf7lXe5VcJ1ZK6E48FbRaaa_Q9JyAKacj3r1IDeklwpn0pX50Plj0siYEAjwY56ta0qje79mhhQOZIQ0Hb1JgeB3eghExVqcUDyhD_RtN5iR4fQ2UlrPGSfw5Niy4FYRiSuXXBqsK6YzOigVEccMOMPgqc1tWYcGNsVpizD_Ewg1YKXfvMqD9b9foIjT2WcTQsMbJLKBtel71N91GynEjk9nuraXlfRvVk5M_j8DRP5wyGxgUl7iwxUkIVANwVV-iLegmWN_M-myCaf6uwSZKfsL_EXTcqKUIBgoEo7cjegQxukKzCziMEPQjHy0]--></g></svg>