<svg xmlns="http://www.w3.org/2000/svg" xmlns:xlink="http://www.w3.org/1999/xlink" contentStyleType="text/css" height="522px" preserveAspectRatio="none" style="width:590px;height:522px;background:#FFFFFF;" version="1.1" viewBox="0 0 590 522" width="590px" zoomAndPan="magnify"><defs/><g><!--class App--><g id="elem_App"><rect codeLine="8" fill="#F1F1F1" height="145.7813" id="App" rx="2.5" ry="2.5" style="stroke:#181818;stroke-width:0.5;" width="177.7783" x="64.29" y="7"/><ellipse cx="135.2539" cy="23" fill="#ADD1B2" rx="11" ry="11" style="stroke:#181818;stroke-width:1;"/><path d="M138.2226,28.6406 Q137.6445,28.9375 137.0039,29.0781 Q136.3632,29.2344 135.6601,29.2344 Q133.1601,29.2344 131.832,27.5938 Q130.5195,25.9375 130.5195,22.8125 Q130.5195,19.6875 131.832,18.0313 Q133.1601,16.375 135.6601,16.375 Q136.3632,16.375 137.0039,16.5313 Q137.6601,16.6875 138.2226,16.9844 L138.2226,19.7031 Q137.5976,19.125 137.0039,18.8594 Q136.4101,18.5781 135.7851,18.5781 Q134.4414,18.5781 133.7539,19.6563 Q133.0664,20.7188 133.0664,22.8125 Q133.0664,24.9063 133.7539,25.9844 Q134.4414,27.0469 135.7851,27.0469 Q136.4101,27.0469 137.0039,26.7813 Q137.5976,26.5 138.2226,25.9219 L138.2226,28.6406 Z " fill="#000000"/><text fill="#000000" font-family="sans-serif" font-size="14" lengthAdjust="spacing" textLength="27.3506" x="155.7539" y="27.8467">App</text><line style="stroke:#181818;stroke-width:0.5;" x1="65.29" x2="241.0683" y1="39" y2="39"/><rect fill="none" height="6" style="stroke:#C82930;stroke-width:1;" width="6" x="72.29" y="49.6484"/><text fill="#000000" font-family="sans-serif" font-size="14" lengthAdjust="spacing" textLength="100.9395" x="84.29" y="55.9951">cur_user: User</text><rect fill="none" height="6" style="stroke:#C82930;stroke-width:1;" width="6" x="72.29" y="65.9453"/><text fill="#000000" font-family="sans-serif" font-size="14" lengthAdjust="spacing" textLength="72.5225" x="84.29" y="72.292">chat: Chat</text><rect fill="none" height="6" style="stroke:#C82930;stroke-width:1;" width="6" x="72.29" y="82.2422"/><text fill="#000000" font-family="sans-serif" font-size="14" lengthAdjust="spacing" textLength="91.458" x="84.29" y="88.5889">ads: Advert[]</text><line style="stroke:#181818;stroke-width:0.5;" x1="65.29" x2="241.0683" y1="95.8906" y2="95.8906"/><ellipse cx="75.29" cy="109.5391" fill="#84BE84" rx="3" ry="3" style="stroke:#038048;stroke-width:1;"/><text fill="#000000" font-family="sans-serif" font-size="14" lengthAdjust="spacing" textLength="88.2178" x="84.29" y="112.8857">open_chat();</text><ellipse cx="75.29" cy="125.8359" fill="#84BE84" rx="3" ry="3" style="stroke:#038048;stroke-width:1;"/><text fill="#000000" font-family="sans-serif" font-size="14" lengthAdjust="spacing" textLength="119.2256" x="84.29" y="129.1826">send_message();</text><ellipse cx="75.29" cy="142.1328" fill="#84BE84" rx="3" ry="3" style="stroke:#038048;stroke-width:1;"/><text fill="#000000" font-family="sans-serif" font-size="14" lengthAdjust="spacing" textLength="151.7783" x="84.29" y="145.4795">get_new_messages();</text></g><!--class AdvertState--><g id="elem_AdvertState"><rect codeLine="17" fill="#F1F1F1" height="48" id="AdvertState" rx="2.5" ry="2.5" style="stroke:#181818;stroke-width:0.5;" width="115.665" x="466.35" y="253.52"/><ellipse cx="481.35" cy="269.52" fill="#B4A7E5" rx="11" ry="11" style="stroke:#181818;stroke-width:1;"/><path d="M477.2719,265.2856 L477.2719,263.1294 L484.6625,263.1294 L484.6625,265.2856 L482.1938,265.2856 L482.1938,273.3638 L484.6625,273.3638 L484.6625,275.52 L477.2719,275.52 L477.2719,273.3638 L479.7406,273.3638 L479.7406,265.2856 L477.2719,265.2856 Z " fill="#000000"/><text fill="#000000" font-family="sans-serif" font-size="14" font-style="italic" lengthAdjust="spacing" textLength="83.665" x="495.35" y="274.3667">AdvertState</text><line style="stroke:#181818;stroke-width:0.5;" x1="467.35" x2="581.015" y1="285.52" y2="285.52"/><line style="stroke:#181818;stroke-width:0.5;" x1="467.35" x2="581.015" y1="293.52" y2="293.52"/></g><!--class ActiveAdvert--><g id="elem_ActiveAdvert"><rect codeLine="19" fill="#F1F1F1" height="48" id="ActiveAdvert" rx="2.5" ry="2.5" style="stroke:#181818;stroke-width:0.5;" width="122.1592" x="461.1" y="55.89"/><ellipse cx="476.1" cy="71.89" fill="#ADD1B2" rx="11" ry="11" style="stroke:#181818;stroke-width:1;"/><path d="M479.0688,77.5306 Q478.4906,77.8275 477.85,77.9681 Q477.2094,78.1244 476.5063,78.1244 Q474.0063,78.1244 472.6781,76.4837 Q471.3656,74.8275 471.3656,71.7025 Q471.3656,68.5775 472.6781,66.9212 Q474.0063,65.265 476.5063,65.265 Q477.2094,65.265 477.85,65.4212 Q478.5063,65.5775 479.0688,65.8744 L479.0688,68.5931 Q478.4438,68.015 477.85,67.7494 Q477.2563,67.4681 476.6313,67.4681 Q475.2875,67.4681 474.6,68.5462 Q473.9125,69.6087 473.9125,71.7025 Q473.9125,73.7962 474.6,74.8744 Q475.2875,75.9369 476.6313,75.9369 Q477.2563,75.9369 477.85,75.6712 Q478.4438,75.39 479.0688,74.8119 L479.0688,77.5306 Z " fill="#000000"/><text fill="#000000" font-family="sans-serif" font-size="14" lengthAdjust="spacing" textLength="90.1592" x="490.1" y="76.7367">ActiveAdvert</text><line style="stroke:#181818;stroke-width:0.5;" x1="462.1" x2="582.2592" y1="87.89" y2="87.89"/><line style="stroke:#181818;stroke-width:0.5;" x1="462.1" x2="582.2592" y1="95.89" y2="95.89"/></g><!--class InactiveAdvert--><g id="elem_InactiveAdvert"><rect codeLine="21" fill="#F1F1F1" height="48" id="InactiveAdvert" rx="2.5" ry="2.5" style="stroke:#181818;stroke-width:0.5;" width="134.1631" x="289.1" y="55.89"/><ellipse cx="304.1" cy="71.89" fill="#ADD1B2" rx="11" ry="11" style="stroke:#181818;stroke-width:1;"/><path d="M307.0688,77.5306 Q306.4906,77.8275 305.85,77.9681 Q305.2094,78.1244 304.5063,78.1244 Q302.0063,78.1244 300.6781,76.4837 Q299.3656,74.8275 299.3656,71.7025 Q299.3656,68.5775 300.6781,66.9212 Q302.0063,65.265 304.5063,65.265 Q305.2094,65.265 305.85,65.4212 Q306.5063,65.5775 307.0688,65.8744 L307.0688,68.5931 Q306.4438,68.015 305.85,67.7494 Q305.2563,67.4681 304.6313,67.4681 Q303.2875,67.4681 302.6,68.5462 Q301.9125,69.6087 301.9125,71.7025 Q301.9125,73.7962 302.6,74.8744 Q303.2875,75.9369 304.6313,75.9369 Q305.2563,75.9369 305.85,75.6712 Q306.4438,75.39 307.0688,74.8119 L307.0688,77.5306 Z " fill="#000000"/><text fill="#000000" font-family="sans-serif" font-size="14" lengthAdjust="spacing" textLength="102.1631" x="318.1" y="76.7367">InactiveAdvert</text><line style="stroke:#181818;stroke-width:0.5;" x1="290.1" x2="422.2631" y1="87.89" y2="87.89"/><line style="stroke:#181818;stroke-width:0.5;" x1="290.1" x2="422.2631" y1="95.89" y2="95.89"/></g><!--class Advert--><g id="elem_Advert"><rect codeLine="23" fill="#F1F1F1" height="80.5938" id="Advert" rx="2.5" ry="2.5" style="stroke:#181818;stroke-width:0.5;" width="154.2969" x="277.03" y="237.22"/><ellipse cx="326.6247" cy="253.22" fill="#ADD1B2" rx="11" ry="11" style="stroke:#181818;stroke-width:1;"/><path d="M329.5935,258.8606 Q329.0154,259.1575 328.3747,259.2981 Q327.7341,259.4544 327.031,259.4544 Q324.531,259.4544 323.2029,257.8137 Q321.8904,256.1575 321.8904,253.0325 Q321.8904,249.9075 323.2029,248.2512 Q324.531,246.595 327.031,246.595 Q327.7341,246.595 328.3747,246.7512 Q329.031,246.9075 329.5935,247.2044 L329.5935,249.9231 Q328.9685,249.345 328.3747,249.0794 Q327.781,248.7981 327.156,248.7981 Q325.8122,248.7981 325.1247,249.8762 Q324.4372,250.9387 324.4372,253.0325 Q324.4372,255.1262 325.1247,256.2044 Q325.8122,257.2669 327.156,257.2669 Q327.781,257.2669 328.3747,257.0012 Q328.9685,256.72 329.5935,256.1419 L329.5935,258.8606 Z " fill="#000000"/><text fill="#000000" font-family="sans-serif" font-size="14" lengthAdjust="spacing" textLength="46.6074" x="347.1247" y="258.0667">Advert</text><line style="stroke:#181818;stroke-width:0.5;" x1="278.03" x2="430.3269" y1="269.22" y2="269.22"/><rect fill="none" height="6" style="stroke:#C82930;stroke-width:1;" width="6" x="285.03" y="279.8684"/><text fill="#000000" font-family="sans-serif" font-size="14" lengthAdjust="spacing" textLength="128.2969" x="297.03" y="286.2151">state: AdvertState</text><rect fill="none" height="6" style="stroke:#C82930;stroke-width:1;" width="6" x="285.03" y="296.1653"/><text fill="#000000" font-family="sans-serif" font-size="14" lengthAdjust="spacing" textLength="58.0645" x="297.03" y="302.512">flat: Flat</text><line style="stroke:#181818;stroke-width:0.5;" x1="278.03" x2="430.3269" y1="309.8137" y2="309.8137"/></g><!--class Flat--><g id="elem_Flat"><rect codeLine="34" fill="#F1F1F1" height="113.1875" id="Flat" rx="2.5" ry="2.5" style="stroke:#181818;stroke-width:0.5;" width="132.2578" x="288.05" y="402.26"/><ellipse cx="336.9235" cy="418.26" fill="#ADD1B2" rx="11" ry="11" style="stroke:#181818;stroke-width:1;"/><path d="M339.8923,423.9006 Q339.3142,424.1975 338.6735,424.3381 Q338.0329,424.4944 337.3298,424.4944 Q334.8298,424.4944 333.5017,422.8538 Q332.1892,421.1975 332.1892,418.0725 Q332.1892,414.9475 333.5017,413.2913 Q334.8298,411.635 337.3298,411.635 Q338.0329,411.635 338.6735,411.7913 Q339.3298,411.9475 339.8923,412.2444 L339.8923,414.9631 Q339.2673,414.385 338.6735,414.1194 Q338.0798,413.8381 337.4548,413.8381 Q336.111,413.8381 335.4235,414.9163 Q334.736,415.9788 334.736,418.0725 Q334.736,420.1663 335.4235,421.2444 Q336.111,422.3069 337.4548,422.3069 Q338.0798,422.3069 338.6735,422.0413 Q339.2673,421.76 339.8923,421.1819 L339.8923,423.9006 Z " fill="#000000"/><text fill="#000000" font-family="sans-serif" font-size="14" lengthAdjust="spacing" textLength="26.0107" x="357.4235" y="423.1067">Flat</text><line style="stroke:#181818;stroke-width:0.5;" x1="289.05" x2="419.3078" y1="434.26" y2="434.26"/><rect fill="none" height="6" style="stroke:#C82930;stroke-width:1;" width="6" x="296.05" y="444.9084"/><text fill="#000000" font-family="sans-serif" font-size="14" lengthAdjust="spacing" textLength="84.335" x="308.05" y="451.2551">owner: User</text><rect fill="none" height="6" style="stroke:#C82930;stroke-width:1;" width="6" x="296.05" y="461.2053"/><text fill="#000000" font-family="sans-serif" font-size="14" lengthAdjust="spacing" textLength="84.1777" x="308.05" y="467.552">renter: User</text><rect fill="none" height="6" style="stroke:#C82930;stroke-width:1;" width="6" x="296.05" y="477.5022"/><text fill="#000000" font-family="sans-serif" font-size="14" lengthAdjust="spacing" textLength="106.2578" x="308.05" y="483.8489">address: String</text><rect fill="none" height="6" style="stroke:#C82930;stroke-width:1;" width="6" x="296.05" y="493.7991"/><text fill="#000000" font-family="sans-serif" font-size="14" lengthAdjust="spacing" textLength="102.3271" x="308.05" y="500.1457">room_num: int</text><line style="stroke:#181818;stroke-width:0.5;" x1="289.05" x2="419.3078" y1="507.4475" y2="507.4475"/></g><!--class Chat--><g id="elem_Chat"><rect codeLine="41" fill="#F1F1F1" height="129.4844" id="Chat" rx="2.5" ry="2.5" style="stroke:#181818;stroke-width:0.5;" width="177.7783" x="64.29" y="212.78"/><ellipse cx="132.5708" cy="228.78" fill="#ADD1B2" rx="11" ry="11" style="stroke:#181818;stroke-width:1;"/><path d="M135.5395,234.4206 Q134.9614,234.7175 134.3208,234.8581 Q133.6801,235.0144 132.977,235.0144 Q130.477,235.0144 129.1489,233.3737 Q127.8364,231.7175 127.8364,228.5925 Q127.8364,225.4675 129.1489,223.8112 Q130.477,222.155 132.977,222.155 Q133.6801,222.155 134.3208,222.3112 Q134.977,222.4675 135.5395,222.7644 L135.5395,225.4831 Q134.9145,224.905 134.3208,224.6394 Q133.727,224.3581 133.102,224.3581 Q131.7583,224.3581 131.0708,225.4362 Q130.3833,226.4987 130.3833,228.5925 Q130.3833,230.6862 131.0708,231.7644 Q131.7583,232.8269 133.102,232.8269 Q133.727,232.8269 134.3208,232.5612 Q134.9145,232.28 135.5395,231.7019 L135.5395,234.4206 Z " fill="#000000"/><text fill="#000000" font-family="sans-serif" font-size="14" lengthAdjust="spacing" textLength="32.7168" x="153.0708" y="233.6267">Chat</text><line style="stroke:#181818;stroke-width:0.5;" x1="65.29" x2="241.0683" y1="244.78" y2="244.78"/><rect fill="none" height="6" style="stroke:#C82930;stroke-width:1;" width="6" x="72.29" y="255.4284"/><text fill="#000000" font-family="sans-serif" font-size="14" lengthAdjust="spacing" textLength="67.1289" x="84.29" y="261.7751">one: User</text><rect fill="none" height="6" style="stroke:#C82930;stroke-width:1;" width="6" x="72.29" y="271.7253"/><text fill="#000000" font-family="sans-serif" font-size="14" lengthAdjust="spacing" textLength="66.582" x="84.29" y="278.072">two: User</text><rect fill="none" height="6" style="stroke:#C82930;stroke-width:1;" width="6" x="72.29" y="288.0222"/><text fill="#000000" font-family="sans-serif" font-size="14" lengthAdjust="spacing" textLength="151.6621" x="84.29" y="294.3689">messages: Message[]</text><line style="stroke:#181818;stroke-width:0.5;" x1="65.29" x2="241.0683" y1="301.6706" y2="301.6706"/><ellipse cx="75.29" cy="315.3191" fill="#84BE84" rx="3" ry="3" style="stroke:#038048;stroke-width:1;"/><text fill="#000000" font-family="sans-serif" font-size="14" lengthAdjust="spacing" textLength="147.1025" x="84.29" y="318.6657">send_message(text);</text><ellipse cx="75.29" cy="331.6159" fill="#84BE84" rx="3" ry="3" style="stroke:#038048;stroke-width:1;"/><text fill="#000000" font-family="sans-serif" font-size="14" lengthAdjust="spacing" textLength="151.7783" x="84.29" y="334.9626">get_new_messages();</text></g><!--class User--><g id="elem_User"><rect codeLine="49" fill="#F1F1F1" height="64.2969" id="User" rx="2.5" ry="2.5" style="stroke:#181818;stroke-width:0.5;" width="150.3594" x="7" y="426.71"/><ellipse cx="61.9746" cy="442.71" fill="#ADD1B2" rx="11" ry="11" style="stroke:#181818;stroke-width:1;"/><path d="M64.9434,448.3506 Q64.3652,448.6475 63.7246,448.7881 Q63.084,448.9444 62.3809,448.9444 Q59.8809,448.9444 58.5527,447.3038 Q57.2402,445.6475 57.2402,442.5225 Q57.2402,439.3975 58.5527,437.7413 Q59.8809,436.085 62.3809,436.085 Q63.084,436.085 63.7246,436.2413 Q64.3809,436.3975 64.9434,436.6944 L64.9434,439.4131 Q64.3184,438.835 63.7246,438.5694 Q63.1309,438.2881 62.5059,438.2881 Q61.1621,438.2881 60.4746,439.3663 Q59.7871,440.4288 59.7871,442.5225 Q59.7871,444.6163 60.4746,445.6944 Q61.1621,446.7569 62.5059,446.7569 Q63.1309,446.7569 63.7246,446.4913 Q64.3184,446.21 64.9434,445.6319 L64.9434,448.3506 Z " fill="#000000"/><text fill="#000000" font-family="sans-serif" font-size="14" lengthAdjust="spacing" textLength="31.9102" x="82.4746" y="447.5567">User</text><line style="stroke:#181818;stroke-width:0.5;" x1="8" x2="156.3594" y1="458.71" y2="458.71"/><ellipse cx="18" cy="472.3584" fill="none" rx="3" ry="3" style="stroke:#038048;stroke-width:1;"/><text fill="#000000" font-family="sans-serif" font-size="14" lengthAdjust="spacing" textLength="124.3594" x="27" y="475.7051">user_id: long long</text><line style="stroke:#181818;stroke-width:0.5;" x1="8" x2="156.3594" y1="483.0069" y2="483.0069"/></g><!--link Advert to AdvertState--><g id="link_Advert_AdvertState"><path codeLine="28" d="M443.54,277.52 C455,277.52 448.46,277.52 459.92,277.52 " fill="none" id="Advert-AdvertState" style="stroke:#181818;stroke-width:1;"/><polygon fill="none" points="431.54,277.52,437.54,281.52,443.54,277.52,437.54,273.52,431.54,277.52" style="stroke:#181818;stroke-width:1;"/><polygon fill="#181818" points="465.92,277.52,456.92,273.52,460.92,277.52,456.92,281.52,465.92,277.52" style="stroke:#181818;stroke-width:1;"/></g><!--link ActiveAdvert to Advert--><g id="link_ActiveAdvert_Advert"><path codeLine="29" d="M502.25,104.1 C474.17,136.79 426.498,192.2973 392.248,232.1973 " fill="none" id="ActiveAdvert-to-Advert" style="stroke:#181818;stroke-width:1;"/><polygon fill="#181818" points="388.34,236.75,397.2372,232.5263,391.5967,232.9561,391.1669,227.3156,388.34,236.75" style="stroke:#181818;stroke-width:1;"/></g><!--link InactiveAdvert to Advert--><g id="link_InactiveAdvert_Advert"><path codeLine="30" d="M355.94,104.1 C355.61,136.79 355.0501,190.8503 354.6501,230.7503 " fill="none" id="InactiveAdvert-to-Advert" style="stroke:#181818;stroke-width:1;"/><polygon fill="#181818" points="354.59,236.75,358.68,227.7906,354.6401,231.7503,350.6804,227.7104,354.59,236.75" style="stroke:#181818;stroke-width:1;"/></g><!--link ActiveAdvert to AdvertState--><g id="link_ActiveAdvert_AdvertState"><path codeLine="31" d="M522.42,104.1 C522.8,141.65 523.364,197.311 523.754,235.041 " fill="none" id="ActiveAdvert-to-AdvertState" style="stroke:#181818;stroke-width:1;"/><polygon fill="none" points="523.94,253.04,529.7536,234.9789,517.7543,235.103,523.94,253.04" style="stroke:#181818;stroke-width:1;"/></g><!--link InactiveAdvert to AdvertState--><g id="link_InactiveAdvert_AdvertState"><path codeLine="32" d="M376.11,104.1 C408.36,141.65 459.8953,201.6523 492.2853,239.3823 " fill="none" id="InactiveAdvert-to-AdvertState" style="stroke:#181818;stroke-width:1;"/><polygon fill="none" points="504.01,253.04,496.8379,235.4741,487.7328,243.2906,504.01,253.04" style="stroke:#181818;stroke-width:1;"/></g><!--reverse link App to Advert--><g id="link_App_Advert"><path codeLine="53" d="M236.0498,161.5492 C265.1298,189.8492 288.75,212.84 313.43,236.86 " fill="none" id="App-backto-Advert" style="stroke:#181818;stroke-width:1;"/><polygon fill="#181818" points="227.45,153.18,228.9602,160.2312,236.0498,161.5492,234.5396,154.498,227.45,153.18" style="stroke:#181818;stroke-width:1;"/></g><!--reverse link App to Chat--><g id="link_App_Chat"><path codeLine="54" d="M153.18,165.18 C153.18,184.66 153.18,193.6 153.18,212.59 " fill="none" id="App-backto-Chat" style="stroke:#181818;stroke-width:1;"/><polygon fill="#181818" points="153.18,153.18,149.18,159.18,153.18,165.18,157.18,159.18,153.18,153.18" style="stroke:#181818;stroke-width:1;"/></g><!--link App to User--><g id="link_App_User"><path codeLine="55" d="M80.93,153.22 C67.11,171.27 54.64,191.58 47.18,212.78 C21.28,286.36 49.7,378.8 68.43,426.36 " fill="none" id="App-User" style="stroke:#181818;stroke-width:1;"/></g><!--link Chat to User--><g id="link_Chat_User"><path codeLine="57" d="M127.75,342.76 C116.45,371.3 103.66,403.59 94.52,426.69 " fill="none" id="Chat-User" style="stroke:#181818;stroke-width:1;"/></g><!--link Advert to Flat--><g id="link_Advert_Flat"><path codeLine="59" d="M354.18,317.88 C354.18,342.52 354.18,368.66 354.18,395.92 " fill="none" id="Advert-to-Flat" style="stroke:#181818;stroke-width:1;"/><polygon fill="#181818" points="354.18,401.92,358.18,392.92,354.18,396.92,350.18,392.92,354.18,401.92" style="stroke:#181818;stroke-width:1;"/></g><!--SRC=[VLB1IiGm4BtdAt9KItuWWh08WWTFovv4GaXcQw5DIZBT2gl_RYPjQbl5op0pBtdpU3EcrJ7oGz_pAnDc26g842G_fPZgTusIFwR8XBPHyeEzGC3NDrRv7fmY_ERsdbKHd5KTnAXho8qQK3aOIozIyuknnY64ipOmCnrH8_1hGioams1pWGbRjP-T_Xie3IOYCSarBHFdbkG_fKYpvxTUF6nURKQA1MIxcIjaz-Dpo_VhtmwVbPCgqkr7z-Dt0FAdLDhQaEoJ_8YXSNM2lU-K6ph9auziCO7sawaSbAyu-fAM3KZ-CcMqlSs-43xmdvrDGuWi3QdeF5HZ9M-zgtF8tgRxkHDYSMWky-LGaVAiXcMjIxNoDc_f6m00]--></g></svg>