<svg xmlns="http://www.w3.org/2000/svg" xmlns:xlink="http://www.w3.org/1999/xlink" contentStyleType="text/css" height="711px" preserveAspectRatio="none" style="width:895px;height:711px;background:#FFFFFF;" version="1.1" viewBox="0 0 895 711" width="895px" zoomAndPan="magnify"><defs/><g><!--class App--><g id="elem_App"><rect codeLine="8" fill="#F1F1F1" height="145.7813" id="App" rx="2.5" ry="2.5" style="stroke:#181818;stroke-width:0.5;" width="217.7412" x="487.34" y="7"/><ellipse cx="578.2853" cy="23" fill="#ADD1B2" rx="11" ry="11" style="stroke:#181818;stroke-width:1.0;"/><path d="M581.2541,28.6406 Q580.6759,28.9375 580.0353,29.0781 Q579.3947,29.2344 578.6916,29.2344 Q576.1916,29.2344 574.8634,27.5938 Q573.5509,25.9375 573.5509,22.8125 Q573.5509,19.6875 574.8634,18.0313 Q576.1916,16.375 578.6916,16.375 Q579.3947,16.375 580.0353,16.5313 Q580.6916,16.6875 581.2541,16.9844 L581.2541,19.7031 Q580.6291,19.125 580.0353,18.8594 Q579.4416,18.5781 578.8166,18.5781 Q577.4728,18.5781 576.7853,19.6563 Q576.0978,20.7188 576.0978,22.8125 Q576.0978,24.9063 576.7853,25.9844 Q577.4728,27.0469 578.8166,27.0469 Q579.4416,27.0469 580.0353,26.7813 Q580.6291,26.5 581.2541,25.9219 L581.2541,28.6406 Z " fill="#000000"/><text fill="#000000" font-family="sans-serif" font-size="14" lengthAdjust="spacing" textLength="27.3506" x="598.7853" y="27.8467">App</text><line style="stroke:#181818;stroke-width:0.5;" x1="488.34" x2="704.0812" y1="39" y2="39"/><ellipse cx="498.34" cy="52.6484" fill="none" rx="3" ry="3" style="stroke:#038048;stroke-width:1.0;"/><text fill="#000000" font-family="sans-serif" font-size="14" lengthAdjust="spacing" textLength="129.6709" x="507.34" y="55.9951">current_user: User</text><ellipse cx="498.34" cy="68.9453" fill="none" rx="3" ry="3" style="stroke:#038048;stroke-width:1.0;"/><text fill="#000000" font-family="sans-serif" font-size="14" lengthAdjust="spacing" textLength="90.7402" x="507.34" y="72.292">chats: Chat[]</text><line style="stroke:#181818;stroke-width:0.5;" x1="488.34" x2="704.0812" y1="79.5938" y2="79.5938"/><ellipse cx="498.34" cy="93.2422" fill="#84BE84" rx="3" ry="3" style="stroke:#038048;stroke-width:1.0;"/><text fill="#000000" font-family="sans-serif" font-size="14" lengthAdjust="spacing" textLength="40.8447" x="507.34" y="96.5889">load()</text><ellipse cx="498.34" cy="109.5391" fill="#84BE84" rx="3" ry="3" style="stroke:#038048;stroke-width:1.0;"/><text fill="#000000" font-family="sans-serif" font-size="14" lengthAdjust="spacing" textLength="83.501" x="507.34" y="112.8857">open_chat()</text><ellipse cx="498.34" cy="125.8359" fill="#84BE84" rx="3" ry="3" style="stroke:#038048;stroke-width:1.0;"/><text fill="#000000" font-family="sans-serif" font-size="14" lengthAdjust="spacing" textLength="191.7412" x="507.34" y="129.1826">send_message(text: string)</text><ellipse cx="498.34" cy="142.1328" fill="#84BE84" rx="3" ry="3" style="stroke:#038048;stroke-width:1.0;"/><text fill="#000000" font-family="sans-serif" font-size="14" lengthAdjust="spacing" textLength="46.9834" x="507.34" y="145.4795">close()</text></g><!--class DatabaseAdapter--><g id="elem_DatabaseAdapter"><rect codeLine="17" fill="#F1F1F1" height="137.75" id="DatabaseAdapter" rx="2.5" ry="2.5" style="stroke:#181818;stroke-width:0.5;" width="460.0342" x="180.2" y="216.8"/><ellipse cx="344.6727" cy="236.9328" fill="#ADD1B2" rx="11" ry="11" style="stroke:#181818;stroke-width:1.0;"/><path d="M347.6414,242.5734 Q347.0633,242.8703 346.4227,243.0109 Q345.782,243.1672 345.0789,243.1672 Q342.5789,243.1672 341.2508,241.5266 Q339.9383,239.8703 339.9383,236.7453 Q339.9383,233.6203 341.2508,231.9641 Q342.5789,230.3078 345.0789,230.3078 Q345.782,230.3078 346.4227,230.4641 Q347.0789,230.6203 347.6414,230.9172 L347.6414,233.6359 Q347.0164,233.0578 346.4227,232.7922 Q345.8289,232.5109 345.2039,232.5109 Q343.8602,232.5109 343.1727,233.5891 Q342.4852,234.6516 342.4852,236.7453 Q342.4852,238.8391 343.1727,239.9172 Q343.8602,240.9797 345.2039,240.9797 Q345.8289,240.9797 346.4227,240.7141 Q347.0164,240.4328 347.6414,239.8547 L347.6414,242.5734 Z " fill="#000000"/><text fill="#000000" font-family="sans-serif" font-size="12" font-style="italic" lengthAdjust="spacing" textLength="47.7598" x="402.5872" y="232.9387">&#171;static&#187;</text><text fill="#000000" font-family="sans-serif" font-size="14" lengthAdjust="spacing" textLength="122.5889" x="365.1727" y="248.7639">DatabaseAdapter</text><line style="stroke:#181818;stroke-width:0.5;" x1="181.2" x2="639.2342" y1="257.0656" y2="257.0656"/><line style="stroke:#181818;stroke-width:0.5;" x1="181.2" x2="639.2342" y1="265.0656" y2="265.0656"/><ellipse cx="191.2" cy="278.7141" fill="#84BE84" rx="3" ry="3" style="stroke:#038048;stroke-width:1.0;"/><text fill="#000000" font-family="sans-serif" font-size="14" lengthAdjust="spacing" textLength="160.5146" x="200.2" y="282.0607">get_adverts(): Advert[]</text><ellipse cx="191.2" cy="295.0109" fill="#84BE84" rx="3" ry="3" style="stroke:#038048;stroke-width:1.0;"/><text fill="#000000" font-family="sans-serif" font-size="14" lengthAdjust="spacing" textLength="134.709" x="200.2" y="298.3576">get_rent_flat(): Flat</text><ellipse cx="191.2" cy="311.3078" fill="#84BE84" rx="3" ry="3" style="stroke:#038048;stroke-width:1.0;"/><text fill="#000000" font-family="sans-serif" font-size="14" lengthAdjust="spacing" textLength="421.4561" x="200.2" y="314.6545">get_all_messages(sender: User, recepient: User): Message[]</text><ellipse cx="191.2" cy="327.6047" fill="#84BE84" rx="3" ry="3" style="stroke:#038048;stroke-width:1.0;"/><text fill="#000000" font-family="sans-serif" font-size="14" lengthAdjust="spacing" textLength="434.0342" x="200.2" y="330.9514">get_new_messages(sender: User, recepient: User): Message[]</text><ellipse cx="191.2" cy="343.9016" fill="#84BE84" rx="3" ry="3" style="stroke:#038048;stroke-width:1.0;"/><text fill="#000000" font-family="sans-serif" font-size="14" lengthAdjust="spacing" textLength="429.2764" x="200.2" y="347.2482">send_message(msg: Message, sender: User, recepient: User)</text></g><!--class Database--><g id="elem_Database"><rect codeLine="25" fill="#F1F1F1" height="72.5625" id="Database" rx="2.5" ry="2.5" style="stroke:#181818;stroke-width:0.5;" width="282.4297" x="7" y="438.88"/><ellipse cx="110.5645" cy="459.0128" fill="#ADD1B2" rx="11" ry="11" style="stroke:#181818;stroke-width:1.0;"/><path d="M113.5332,464.6534 Q112.9551,464.9503 112.3145,465.0909 Q111.6738,465.2472 110.9707,465.2472 Q108.4707,465.2472 107.1426,463.6066 Q105.8301,461.9503 105.8301,458.8253 Q105.8301,455.7003 107.1426,454.0441 Q108.4707,452.3878 110.9707,452.3878 Q111.6738,452.3878 112.3145,452.5441 Q112.9707,452.7003 113.5332,452.9972 L113.5332,455.7159 Q112.9082,455.1378 112.3145,454.8722 Q111.7207,454.5909 111.0957,454.5909 Q109.752,454.5909 109.0645,455.6691 Q108.377,456.7316 108.377,458.8253 Q108.377,460.9191 109.0645,461.9972 Q109.752,463.0597 111.0957,463.0597 Q111.7207,463.0597 112.3145,462.7941 Q112.9082,462.5128 113.5332,461.9347 L113.5332,464.6534 Z " fill="#000000"/><text fill="#000000" font-family="sans-serif" font-size="12" font-style="italic" lengthAdjust="spacing" textLength="47.7598" x="140.585" y="455.0187">&#171;static&#187;</text><text fill="#000000" font-family="sans-serif" font-size="14" lengthAdjust="spacing" textLength="66.8008" x="131.0645" y="470.8439">Database</text><line style="stroke:#181818;stroke-width:0.5;" x1="8" x2="288.4297" y1="479.1456" y2="479.1456"/><line style="stroke:#181818;stroke-width:0.5;" x1="8" x2="288.4297" y1="487.1456" y2="487.1456"/><ellipse cx="18" cy="500.7941" fill="#84BE84" rx="3" ry="3" style="stroke:#038048;stroke-width:1.0;"/><text fill="#000000" font-family="sans-serif" font-size="14" lengthAdjust="spacing" textLength="256.4297" x="27" y="504.1407">send_query(query: String): response</text></g><!--class Advert--><g id="elem_Advert"><rect codeLine="29" fill="#F1F1F1" height="64.2969" id="Advert" rx="2.5" ry="2.5" style="stroke:#181818;stroke-width:0.5;" width="84.0645" x="324.18" y="443.01"/><ellipse cx="341.6357" cy="459.01" fill="#ADD1B2" rx="11" ry="11" style="stroke:#181818;stroke-width:1.0;"/><path d="M344.6044,464.6506 Q344.0263,464.9475 343.3857,465.0881 Q342.745,465.2444 342.0419,465.2444 Q339.5419,465.2444 338.2138,463.6038 Q336.9013,461.9475 336.9013,458.8225 Q336.9013,455.6975 338.2138,454.0413 Q339.5419,452.385 342.0419,452.385 Q342.745,452.385 343.3857,452.5413 Q344.0419,452.6975 344.6044,452.9944 L344.6044,455.7131 Q343.9794,455.135 343.3857,454.8694 Q342.7919,454.5881 342.1669,454.5881 Q340.8232,454.5881 340.1357,455.6663 Q339.4482,456.7288 339.4482,458.8225 Q339.4482,460.9163 340.1357,461.9944 Q340.8232,463.0569 342.1669,463.0569 Q342.7919,463.0569 343.3857,462.7913 Q343.9794,462.51 344.6044,461.9319 L344.6044,464.6506 Z " fill="#000000"/><text fill="#000000" font-family="sans-serif" font-size="14" lengthAdjust="spacing" textLength="46.6074" x="356.1814" y="463.8567">Advert</text><line style="stroke:#181818;stroke-width:0.5;" x1="325.18" x2="407.2445" y1="475.01" y2="475.01"/><ellipse cx="335.18" cy="488.6584" fill="none" rx="3" ry="3" style="stroke:#038048;stroke-width:1.0;"/><text fill="#000000" font-family="sans-serif" font-size="14" lengthAdjust="spacing" textLength="58.0645" x="344.18" y="492.0051">flat: Flat</text><line style="stroke:#181818;stroke-width:0.5;" x1="325.18" x2="407.2445" y1="499.3069" y2="499.3069"/></g><!--class Flat--><g id="elem_Flat"><rect codeLine="33" fill="#F1F1F1" height="113.1875" id="Flat" rx="2.5" ry="2.5" style="stroke:#181818;stroke-width:0.5;" width="132.2578" x="347.09" y="591.75"/><ellipse cx="395.9635" cy="607.75" fill="#ADD1B2" rx="11" ry="11" style="stroke:#181818;stroke-width:1.0;"/><path d="M398.9323,613.3906 Q398.3542,613.6875 397.7135,613.8281 Q397.0729,613.9844 396.3698,613.9844 Q393.8698,613.9844 392.5417,612.3438 Q391.2292,610.6875 391.2292,607.5625 Q391.2292,604.4375 392.5417,602.7813 Q393.8698,601.125 396.3698,601.125 Q397.0729,601.125 397.7135,601.2813 Q398.3698,601.4375 398.9323,601.7344 L398.9323,604.4531 Q398.3073,603.875 397.7135,603.6094 Q397.1198,603.3281 396.4948,603.3281 Q395.151,603.3281 394.4635,604.4063 Q393.776,605.4688 393.776,607.5625 Q393.776,609.6563 394.4635,610.7344 Q395.151,611.7969 396.4948,611.7969 Q397.1198,611.7969 397.7135,611.5313 Q398.3073,611.25 398.9323,610.6719 L398.9323,613.3906 Z " fill="#000000"/><text fill="#000000" font-family="sans-serif" font-size="14" lengthAdjust="spacing" textLength="26.0107" x="416.4635" y="612.5967">Flat</text><line style="stroke:#181818;stroke-width:0.5;" x1="348.09" x2="478.3478" y1="623.75" y2="623.75"/><ellipse cx="358.09" cy="637.3984" fill="none" rx="3" ry="3" style="stroke:#038048;stroke-width:1.0;"/><text fill="#000000" font-family="sans-serif" font-size="14" lengthAdjust="spacing" textLength="84.335" x="367.09" y="640.7451">owner: User</text><ellipse cx="358.09" cy="653.6953" fill="none" rx="3" ry="3" style="stroke:#038048;stroke-width:1.0;"/><text fill="#000000" font-family="sans-serif" font-size="14" lengthAdjust="spacing" textLength="84.1777" x="367.09" y="657.042">renter: User</text><ellipse cx="358.09" cy="669.9922" fill="none" rx="3" ry="3" style="stroke:#038048;stroke-width:1.0;"/><text fill="#000000" font-family="sans-serif" font-size="14" lengthAdjust="spacing" textLength="106.2578" x="367.09" y="673.3389">address: String</text><ellipse cx="358.09" cy="686.2891" fill="none" rx="3" ry="3" style="stroke:#038048;stroke-width:1.0;"/><text fill="#000000" font-family="sans-serif" font-size="14" lengthAdjust="spacing" textLength="102.3271" x="367.09" y="689.6357">room_num: int</text><line style="stroke:#181818;stroke-width:0.5;" x1="348.09" x2="478.3478" y1="696.9375" y2="696.9375"/></g><!--class Chat--><g id="elem_Chat"><rect codeLine="40" fill="#F1F1F1" height="145.7813" id="Chat" rx="2.5" ry="2.5" style="stroke:#181818;stroke-width:0.5;" width="213.5645" x="675.43" y="212.78"/><ellipse cx="761.6038" cy="228.78" fill="#ADD1B2" rx="11" ry="11" style="stroke:#181818;stroke-width:1.0;"/><path d="M764.5726,234.4206 Q763.9945,234.7175 763.3538,234.8581 Q762.7132,235.0144 762.0101,235.0144 Q759.5101,235.0144 758.182,233.3738 Q756.8695,231.7175 756.8695,228.5925 Q756.8695,225.4675 758.182,223.8113 Q759.5101,222.155 762.0101,222.155 Q762.7132,222.155 763.3538,222.3113 Q764.0101,222.4675 764.5726,222.7644 L764.5726,225.4831 Q763.9476,224.905 763.3538,224.6394 Q762.7601,224.3581 762.1351,224.3581 Q760.7913,224.3581 760.1038,225.4363 Q759.4163,226.4988 759.4163,228.5925 Q759.4163,230.6863 760.1038,231.7644 Q760.7913,232.8269 762.1351,232.8269 Q762.7601,232.8269 763.3538,232.5613 Q763.9476,232.28 764.5726,231.7019 L764.5726,234.4206 Z " fill="#000000"/><text fill="#000000" font-family="sans-serif" font-size="14" lengthAdjust="spacing" textLength="32.7168" x="782.1038" y="233.6267">Chat</text><line style="stroke:#181818;stroke-width:0.5;" x1="676.43" x2="887.9945" y1="244.78" y2="244.78"/><ellipse cx="686.43" cy="258.4284" fill="none" rx="3" ry="3" style="stroke:#038048;stroke-width:1.0;"/><text fill="#000000" font-family="sans-serif" font-size="14" lengthAdjust="spacing" textLength="89.1133" x="695.43" y="261.7751">sender: User</text><ellipse cx="686.43" cy="274.7253" fill="none" rx="3" ry="3" style="stroke:#038048;stroke-width:1.0;"/><text fill="#000000" font-family="sans-serif" font-size="14" lengthAdjust="spacing" textLength="107.5088" x="695.43" y="278.072">recepient: User</text><ellipse cx="686.43" cy="291.0222" fill="none" rx="3" ry="3" style="stroke:#038048;stroke-width:1.0;"/><text fill="#000000" font-family="sans-serif" font-size="14" lengthAdjust="spacing" textLength="151.6621" x="695.43" y="294.3689">messages: Message[]</text><line style="stroke:#181818;stroke-width:0.5;" x1="676.43" x2="887.9945" y1="301.6706" y2="301.6706"/><ellipse cx="686.43" cy="315.3191" fill="#84BE84" rx="3" ry="3" style="stroke:#038048;stroke-width:1.0;"/><text fill="#000000" font-family="sans-serif" font-size="14" lengthAdjust="spacing" textLength="187.5645" x="695.43" y="318.6657">get_full_message_history()</text><ellipse cx="686.43" cy="331.6159" fill="#84BE84" rx="3" ry="3" style="stroke:#038048;stroke-width:1.0;"/><text fill="#000000" font-family="sans-serif" font-size="14" lengthAdjust="spacing" textLength="167.7061" x="695.43" y="334.9626">get_unread_messages()</text><ellipse cx="686.43" cy="347.9128" fill="#84BE84" rx="3" ry="3" style="stroke:#038048;stroke-width:1.0;"/><text fill="#000000" font-family="sans-serif" font-size="14" lengthAdjust="spacing" textLength="141.9277" x="695.43" y="351.2595">send_message(): int</text></g><!--class Message--><g id="elem_Message"><rect codeLine="49" fill="#F1F1F1" height="113.1875" id="Message" rx="2.5" ry="2.5" style="stroke:#181818;stroke-width:0.5;" width="166.0547" x="699.19" y="418.56"/><ellipse cx="747.2877" cy="434.56" fill="#ADD1B2" rx="11" ry="11" style="stroke:#181818;stroke-width:1.0;"/><path d="M750.2564,440.2006 Q749.6783,440.4975 749.0377,440.6381 Q748.397,440.7944 747.6939,440.7944 Q745.1939,440.7944 743.8658,439.1538 Q742.5533,437.4975 742.5533,434.3725 Q742.5533,431.2475 743.8658,429.5913 Q745.1939,427.935 747.6939,427.935 Q748.397,427.935 749.0377,428.0913 Q749.6939,428.2475 750.2564,428.5444 L750.2564,431.2631 Q749.6314,430.685 749.0377,430.4194 Q748.4439,430.1381 747.8189,430.1381 Q746.4752,430.1381 745.7877,431.2163 Q745.1002,432.2788 745.1002,434.3725 Q745.1002,436.4663 745.7877,437.5444 Q746.4752,438.6069 747.8189,438.6069 Q748.4439,438.6069 749.0377,438.3413 Q749.6314,438.06 750.2564,437.4819 L750.2564,440.2006 Z " fill="#000000"/><text fill="#000000" font-family="sans-serif" font-size="14" lengthAdjust="spacing" textLength="61.3594" x="767.7877" y="439.4067">Message</text><line style="stroke:#181818;stroke-width:0.5;" x1="700.19" x2="864.2447" y1="450.56" y2="450.56"/><ellipse cx="710.19" cy="464.2084" fill="none" rx="3" ry="3" style="stroke:#038048;stroke-width:1.0;"/><text fill="#000000" font-family="sans-serif" font-size="14" lengthAdjust="spacing" textLength="140.0547" x="719.19" y="467.5551">date_time: utc_time</text><ellipse cx="710.19" cy="480.5053" fill="none" rx="3" ry="3" style="stroke:#038048;stroke-width:1.0;"/><text fill="#000000" font-family="sans-serif" font-size="14" lengthAdjust="spacing" textLength="89.1133" x="719.19" y="483.852">sender: User</text><ellipse cx="710.19" cy="496.8022" fill="none" rx="3" ry="3" style="stroke:#038048;stroke-width:1.0;"/><text fill="#000000" font-family="sans-serif" font-size="14" lengthAdjust="spacing" textLength="107.5088" x="719.19" y="500.1489">recepient: User</text><ellipse cx="710.19" cy="513.0991" fill="none" rx="3" ry="3" style="stroke:#038048;stroke-width:1.0;"/><text fill="#000000" font-family="sans-serif" font-size="14" lengthAdjust="spacing" textLength="112.2734" x="719.19" y="516.4457">message: string</text><line style="stroke:#181818;stroke-width:0.5;" x1="700.19" x2="864.2447" y1="523.7475" y2="523.7475"/></g><!--class User--><g id="elem_User"><rect codeLine="56" fill="#F1F1F1" height="64.2969" id="User" rx="2.5" ry="2.5" style="stroke:#181818;stroke-width:0.5;" width="150.3594" x="514.04" y="443.01"/><ellipse cx="569.0146" cy="459.01" fill="#ADD1B2" rx="11" ry="11" style="stroke:#181818;stroke-width:1.0;"/><path d="M571.9834,464.6506 Q571.4052,464.9475 570.7646,465.0881 Q570.124,465.2444 569.4209,465.2444 Q566.9209,465.2444 565.5927,463.6038 Q564.2802,461.9475 564.2802,458.8225 Q564.2802,455.6975 565.5927,454.0413 Q566.9209,452.385 569.4209,452.385 Q570.124,452.385 570.7646,452.5413 Q571.4209,452.6975 571.9834,452.9944 L571.9834,455.7131 Q571.3584,455.135 570.7646,454.8694 Q570.1709,454.5881 569.5459,454.5881 Q568.2021,454.5881 567.5146,455.6663 Q566.8271,456.7288 566.8271,458.8225 Q566.8271,460.9163 567.5146,461.9944 Q568.2021,463.0569 569.5459,463.0569 Q570.1709,463.0569 570.7646,462.7913 Q571.3584,462.51 571.9834,461.9319 L571.9834,464.6506 Z " fill="#000000"/><text fill="#000000" font-family="sans-serif" font-size="14" lengthAdjust="spacing" textLength="31.9102" x="589.5146" y="463.8567">User</text><line style="stroke:#181818;stroke-width:0.5;" x1="515.04" x2="663.3994" y1="475.01" y2="475.01"/><ellipse cx="525.04" cy="488.6584" fill="none" rx="3" ry="3" style="stroke:#038048;stroke-width:1.0;"/><text fill="#000000" font-family="sans-serif" font-size="14" lengthAdjust="spacing" textLength="124.3594" x="534.04" y="492.0051">user_id: long long</text><line style="stroke:#181818;stroke-width:0.5;" x1="515.04" x2="663.3994" y1="499.3069" y2="499.3069"/></g><!--reverse link App to Chat--><g id="link_App_Chat"><path codeLine="60" d="M670.1418,161.8913 C687.7018,181.1213 698.58,193.05 716.15,212.3 " fill="none" id="App-backto-Chat" style="stroke:#181818;stroke-width:1.0;"/><polygon fill="#181818" points="662.05,153.03,663.1421,160.1579,670.1418,161.8913,669.0497,154.7634,662.05,153.03" style="stroke:#181818;stroke-width:1.0;"/></g><!--link App to DatabaseAdapter--><g id="link_App_DatabaseAdapter"><path codeLine="61" d="M530.38,153.03 C511.57,173.63 495.1735,191.5872 476.5835,211.9672 " fill="none" id="App-to-DatabaseAdapter" style="stroke:#181818;stroke-width:1.0;"/><polygon fill="#181818" points="472.54,216.4,481.5605,212.4464,475.9096,212.706,475.65,207.0551,472.54,216.4" style="stroke:#181818;stroke-width:1.0;"/></g><!--link Chat to User--><g id="link_Chat_User"><path codeLine="63" d="M707.87,358.89 C677.93,387.98 644.97,419.99 621.41,442.89 " fill="none" id="Chat-User" style="stroke:#181818;stroke-width:1.0;"/></g><!--reverse link Chat to Message--><g id="link_Chat_Message"><path codeLine="64" d="M782.21,370.89 C782.21,390.59 782.21,399.64 782.21,418.28 " fill="none" id="Chat-backto-Message" style="stroke:#181818;stroke-width:1.0;"/><polygon fill="none" points="782.21,358.89,778.21,364.89,782.21,370.89,786.21,364.89,782.21,358.89" style="stroke:#181818;stroke-width:1.0;"/></g><!--reverse link DatabaseAdapter to Advert--><g id="link_DatabaseAdapter_Advert"><path codeLine="66" d="M391.4654,366.5719 C384.4054,396.6219 379.21,418.78 373.59,442.71 " fill="none" id="DatabaseAdapter-backto-Advert" style="stroke:#181818;stroke-width:1.0;"/><polygon fill="none" points="394.21,354.89,388.9437,359.8161,391.4654,366.5719,396.7317,361.6458,394.21,354.89" style="stroke:#181818;stroke-width:1.0;"/></g><!--reverse link DatabaseAdapter to Flat--><g id="link_DatabaseAdapter_Flat"><path codeLine="67" d="M421.5612,366.8995 C424.0812,387.2995 424.96,397.84 426.21,418.56 C429.25,468.78 429.03,481.53 426.21,531.75 C425.12,551.21 423.01,572.42 420.8,591.3 " fill="none" id="DatabaseAdapter-backto-Flat" style="stroke:#181818;stroke-width:1.0;"/><polygon fill="none" points="420.09,354.99,416.8558,361.4351,421.5612,366.8995,424.7954,360.4543,420.09,354.99" style="stroke:#181818;stroke-width:1.0;"/></g><!--reverse link DatabaseAdapter to User--><g id="link_DatabaseAdapter_User"><path codeLine="68" d="M483.6266,363.5694 C512.3166,393.6194 536.34,418.78 559.19,442.71 " fill="none" id="DatabaseAdapter-backto-User" style="stroke:#181818;stroke-width:1.0;"/><polygon fill="none" points="475.34,354.89,476.5902,361.9919,483.6266,363.5694,482.3764,356.4675,475.34,354.89" style="stroke:#181818;stroke-width:1.0;"/></g><!--reverse link DatabaseAdapter to Message--><g id="link_DatabaseAdapter_Message"><path codeLine="69" d="M565.7502,360.2303 C607.0902,380.2503 641.24,397.26 682.21,418.56 C687.68,421.41 693.28,424.37 698.92,427.4 " fill="none" id="DatabaseAdapter-backto-Message" style="stroke:#181818;stroke-width:1.0;"/><polygon fill="none" points="554.95,355,558.6067,361.2152,565.7502,360.2303,562.0935,354.0151,554.95,355" style="stroke:#181818;stroke-width:1.0;"/></g><!--link DatabaseAdapter to Database--><g id="link_DatabaseAdapter_Database"><path codeLine="71" d="M314.89,354.89 C275.23,383.26 235.7394,411.5284 202.7594,435.1284 " fill="none" id="DatabaseAdapter-to-Database" style="stroke:#181818;stroke-width:1.0;"/><polygon fill="#181818" points="197.88,438.62,207.5269,436.6355,201.9462,435.7103,202.8713,430.1296,197.88,438.62" style="stroke:#181818;stroke-width:1.0;"/></g><!--link Advert to Flat--><g id="link_Advert_Flat"><path codeLine="73" d="M374.84,507.56 C381.28,531.01 388.6618,557.904 396.3118,585.774 " fill="none" id="Advert-to-Flat" style="stroke:#181818;stroke-width:1.0;"/><polygon fill="#181818" points="397.9,591.56,399.375,581.8222,396.5765,586.7383,391.6604,583.9398,397.9,591.56" style="stroke:#181818;stroke-width:1.0;"/></g><!--SRC=[dLF1JiCm3BtdAt9iAVs1Q9eqWRXnGfmGYaBZTP7QfCGf0o7-dJXjrwqR2759wZpd-UNPhHg5o3TTnpzPKVNUWmsoH_22FyOrdkrKGC5lulRqp8h6APtbh70TM4aO1GXMonOGLGrPWFSWE0PlR1sngd48CUcBiIhLkbL1lIY4ZLPT0CzNAmmgc6gz9War1Adq6_Y0MIxu9drIOGAIk6r3HGM_Y_kOtpHJTSn8owJ-cdkee3Fnsd0GhzqFYHEbXVs_xfuykSNw05xptrdEZLWua9XVU_0VMLe5VnYy594BEsSHPex17xf6jeoc752A27DxEpUKJ9mZfNLanQb8X9rhfUrRmOqzegB-J-gEkKuUnuh9oZEVj_tS9Bap65nyNpvWlVMWzDo6vKJb2oqZDSdHAe0CfWN1-r2bhxzgd6PqvYMOI6dyfT62DyxMQQ4S-aUkoZ8vaOAoN2-7cR7aKynAfLBWOZGgPcmv_0GEFRm8fNPU0XBz9U37IiTgusE6kQ73LECR]--></g></svg>