<svg xmlns="http://www.w3.org/2000/svg" xmlns:xlink="http://www.w3.org/1999/xlink" contentStyleType="text/css" height="417px" preserveAspectRatio="none" style="width:581px;height:417px;background:#FFFFFF;" version="1.1" viewBox="0 0 581 417" width="581px" zoomAndPan="magnify"><defs/><g><rect fill="#FFFFFF" height="214.9297" style="stroke:#181818;stroke-width:1;" width="10" x="274.9482" y="112.4297"/><rect fill="#FFFFFF" height="132.5313" style="stroke:#181818;stroke-width:1;" width="10" x="355.6436" y="194.8281"/><rect fill="#FFFFFF" height="103.3984" style="stroke:#181818;stroke-width:1;" width="10" x="454.0288" y="223.9609"/><rect fill="none" height="75.3984" style="stroke:#000000;stroke-width:1.5;" width="326.4048" x="249.2729" y="156.5625"/><line style="stroke:#181818;stroke-width:0.5;stroke-dasharray:5.0,5.0;" x1="76" x2="76" y1="81.2969" y2="336.3594"/><line style="stroke:#181818;stroke-width:0.5;stroke-dasharray:5.0,5.0;" x1="279.2729" x2="279.2729" y1="81.2969" y2="336.3594"/><line style="stroke:#181818;stroke-width:0.5;stroke-dasharray:5.0,5.0;" x1="360.3398" x2="360.3398" y1="81.2969" y2="336.3594"/><line style="stroke:#181818;stroke-width:0.5;stroke-dasharray:5.0,5.0;" x1="458.9473" x2="458.9473" y1="81.2969" y2="336.3594"/><text fill="#000000" font-family="sans-serif" font-size="14" lengthAdjust="spacing" textLength="137.8672" x="5" y="77.9951">&#1050;&#1074;&#1072;&#1088;&#1090;&#1080;&#1088;&#1086;&#1089;&#1098;&#1105;&#1084;&#1097;&#1080;&#1082;</text><ellipse cx="76.9336" cy="13.5" fill="#E2E2F0" rx="8" ry="8" style="stroke:#181818;stroke-width:0.5;"/><path d="M76.9336,21.5 L76.9336,48.5 M63.9336,29.5 L89.9336,29.5 M76.9336,48.5 L63.9336,63.5 M76.9336,48.5 L89.9336,63.5 " fill="none" style="stroke:#181818;stroke-width:0.5;"/><text fill="#000000" font-family="sans-serif" font-size="14" lengthAdjust="spacing" textLength="137.8672" x="5" y="348.3545">&#1050;&#1074;&#1072;&#1088;&#1090;&#1080;&#1088;&#1086;&#1089;&#1098;&#1105;&#1084;&#1097;&#1080;&#1082;</text><ellipse cx="76.9336" cy="360.1563" fill="#E2E2F0" rx="8" ry="8" style="stroke:#181818;stroke-width:0.5;"/><path d="M76.9336,368.1563 L76.9336,395.1563 M63.9336,376.1563 L89.9336,376.1563 M76.9336,395.1563 L63.9336,410.1563 M76.9336,395.1563 L89.9336,410.1563 " fill="none" style="stroke:#181818;stroke-width:0.5;"/><rect fill="#E2E2F0" height="30.2969" rx="2.5" ry="2.5" style="stroke:#181818;stroke-width:0.5;" width="41.3506" x="259.2729" y="50"/><text fill="#000000" font-family="sans-serif" font-size="14" lengthAdjust="spacing" textLength="27.3506" x="266.2729" y="69.9951">App</text><rect fill="#E2E2F0" height="30.2969" rx="2.5" ry="2.5" style="stroke:#181818;stroke-width:0.5;" width="41.3506" x="259.2729" y="335.3594"/><text fill="#000000" font-family="sans-serif" font-size="14" lengthAdjust="spacing" textLength="27.3506" x="266.2729" y="355.3545">App</text><rect fill="#E2E2F0" height="30.2969" rx="2.5" ry="2.5" style="stroke:#181818;stroke-width:0.5;" width="60.6074" x="330.3398" y="50"/><text fill="#000000" font-family="sans-serif" font-size="14" lengthAdjust="spacing" textLength="46.6074" x="337.3398" y="69.9951">Advert</text><rect fill="#E2E2F0" height="30.2969" rx="2.5" ry="2.5" style="stroke:#181818;stroke-width:0.5;" width="60.6074" x="330.3398" y="335.3594"/><text fill="#000000" font-family="sans-serif" font-size="14" lengthAdjust="spacing" textLength="46.6074" x="337.3398" y="355.3545">Advert</text><rect fill="#E2E2F0" height="30.2969" rx="2.5" ry="2.5" style="stroke:#181818;stroke-width:0.5;" width="116.1631" x="400.9473" y="50"/><text fill="#000000" font-family="sans-serif" font-size="14" lengthAdjust="spacing" textLength="102.1631" x="407.9473" y="69.9951">InactiveAdvert</text><rect fill="#E2E2F0" height="30.2969" rx="2.5" ry="2.5" style="stroke:#181818;stroke-width:0.5;" width="116.1631" x="400.9473" y="335.3594"/><text fill="#000000" font-family="sans-serif" font-size="14" lengthAdjust="spacing" textLength="102.1631" x="407.9473" y="355.3545">InactiveAdvert</text><rect fill="#FFFFFF" height="214.9297" style="stroke:#181818;stroke-width:1;" width="10" x="274.9482" y="112.4297"/><rect fill="#FFFFFF" height="132.5313" style="stroke:#181818;stroke-width:1;" width="10" x="355.6436" y="194.8281"/><rect fill="#FFFFFF" height="103.3984" style="stroke:#181818;stroke-width:1;" width="10" x="454.0288" y="223.9609"/><polygon fill="#181818" points="262.9482,108.4297,272.9482,112.4297,262.9482,116.4297,266.9482,112.4297" style="stroke:#181818;stroke-width:1;"/><line style="stroke:#181818;stroke-width:1;" x1="76.9336" x2="268.9482" y1="112.4297" y2="112.4297"/><text fill="#000000" font-family="sans-serif" font-size="13" lengthAdjust="spacing" textLength="51.6953" x="83.9336" y="107.3638">create()</text><polygon fill="#181818" points="262.9482,137.5625,272.9482,141.5625,262.9482,145.5625,266.9482,141.5625" style="stroke:#181818;stroke-width:1;"/><line style="stroke:#181818;stroke-width:1;" x1="76.9336" x2="268.9482" y1="141.5625" y2="141.5625"/><text fill="#000000" font-family="sans-serif" font-size="13" lengthAdjust="spacing" textLength="98.8267" x="83.9336" y="136.4966">fetch_adverts()</text><path d="M249.2729,156.5625 L325.897,156.5625 L325.897,163.6953 L315.897,173.6953 L249.2729,173.6953 L249.2729,156.5625 " fill="#EEEEEE" style="stroke:#000000;stroke-width:1.5;"/><rect fill="none" height="75.3984" style="stroke:#000000;stroke-width:1.5;" width="326.4048" x="249.2729" y="156.5625"/><text fill="#000000" font-family="sans-serif" font-size="13" font-weight="bold" lengthAdjust="spacing" textLength="31.624" x="264.2729" y="169.6294">loop</text><text fill="#000000" font-family="sans-serif" font-size="11" font-weight="bold" lengthAdjust="spacing" textLength="229.7808" x="340.897" y="168.7729">[&#1087;&#1086;&#1082;&#1072; &#1085;&#1077; &#1087;&#1086;&#1083;&#1091;&#1095;&#1077;&#1085;&#1099; &#1074;&#1089;&#1077; &#1086;&#1073;&#1098;&#1103;&#1074;&#1083;&#1077;&#1085;&#1080;&#1103;]</text><polygon fill="#181818" points="343.6436,190.8281,353.6436,194.8281,343.6436,198.8281,347.6436,194.8281" style="stroke:#181818;stroke-width:1;"/><line style="stroke:#181818;stroke-width:1;" x1="284.9482" x2="349.6436" y1="194.8281" y2="194.8281"/><text fill="#000000" font-family="sans-serif" font-size="13" lengthAdjust="spacing" textLength="51.6953" x="291.9482" y="189.7622">create()</text><polygon fill="#181818" points="442.0288,219.9609,452.0288,223.9609,442.0288,227.9609,446.0288,223.9609" style="stroke:#181818;stroke-width:1;"/><line style="stroke:#181818;stroke-width:1;" x1="365.6436" x2="448.0288" y1="223.9609" y2="223.9609"/><text fill="#000000" font-family="sans-serif" font-size="13" lengthAdjust="spacing" textLength="51.6953" x="372.6436" y="218.895">create()</text><polygon fill="#181818" points="262.9482,256.0938,272.9482,260.0938,262.9482,264.0938,266.9482,260.0938" style="stroke:#181818;stroke-width:1;"/><line style="stroke:#181818;stroke-width:1;" x1="76.9336" x2="268.9482" y1="260.0938" y2="260.0938"/><text fill="#000000" font-family="sans-serif" font-size="13" lengthAdjust="spacing" textLength="174.0146" x="83.9336" y="255.0278">filter_adverts_cheap_first()</text><polygon fill="#181818" points="262.9482,285.2266,272.9482,289.2266,262.9482,293.2266,266.9482,289.2266" style="stroke:#181818;stroke-width:1;"/><line style="stroke:#181818;stroke-width:1;" x1="76.9336" x2="268.9482" y1="289.2266" y2="289.2266"/><text fill="#000000" font-family="sans-serif" font-size="13" lengthAdjust="spacing" textLength="156.0063" x="83.9336" y="284.1606">get_first_found_advert()</text><polygon fill="#181818" points="262.9482,314.3594,272.9482,318.3594,262.9482,322.3594,266.9482,318.3594" style="stroke:#181818;stroke-width:1;"/><line style="stroke:#181818;stroke-width:1;" x1="76.9336" x2="268.9482" y1="318.3594" y2="318.3594"/><text fill="#000000" font-family="sans-serif" font-size="13" lengthAdjust="spacing" textLength="43.6274" x="83.9336" y="313.2935">close()</text><!--SRC=[bOynQiD044NxFSMMSP4Bk0Yap2d4iXh50g4LgxLhEovCaiAapIbaWq58aNo5FpVohkGKWM3aRdV-_s_cA-sCbVZ64HMl-Gqrhz7pXZ_u2p_yZXgD4BTr-VWaduj2pgMsf1mzp8JIBbtvPvXFJYVaz29IyOgiApqaCwQGEAD7WqgYmsdyjRpb7Kxe-5FYo9imxt7mqBrVr0R5BzgBG0tm0VZ_TOCahWxlVSa7ZMva_be4vV7qWcdcoFusZFI2L14bgIsTNp0Lyafkp4I9MURnbNO7G6Uc38qk]--></g></svg>