<svg xmlns="http://www.w3.org/2000/svg" xmlns:xlink="http://www.w3.org/1999/xlink" contentStyleType="text/css" height="502px" preserveAspectRatio="none" style="width:718px;height:502px;background:#FFFFFF;" version="1.1" viewBox="0 0 718 502" width="718px" zoomAndPan="magnify"><defs/><g><rect fill="#FFFFFF" height="300.3281" style="stroke:#181818;stroke-width:1;" width="10" x="339.8594" y="112.4297"/><rect fill="#FFFFFF" height="242.0625" style="stroke:#181818;stroke-width:1;" width="10" x="549.4863" y="170.6953"/><rect fill="#FFFFFF" height="212.9297" style="stroke:#181818;stroke-width:1;" width="10" x="649.1084" y="199.8281"/><line style="stroke:#181818;stroke-width:0.5;stroke-dasharray:5.0,5.0;" x1="76" x2="76" y1="81.2969" y2="421.7578"/><line style="stroke:#181818;stroke-width:0.5;stroke-dasharray:5.0,5.0;" x1="344.1841" x2="344.1841" y1="81.2969" y2="421.7578"/><line style="stroke:#181818;stroke-width:0.5;stroke-dasharray:5.0,5.0;" x1="554.1826" x2="554.1826" y1="81.2969" y2="421.7578"/><line style="stroke:#181818;stroke-width:0.5;stroke-dasharray:5.0,5.0;" x1="654.0269" x2="654.0269" y1="81.2969" y2="421.7578"/><text fill="#000000" font-family="sans-serif" font-size="14" lengthAdjust="spacing" textLength="137.8672" x="5" y="77.9951">&#1050;&#1074;&#1072;&#1088;&#1090;&#1080;&#1088;&#1086;&#1089;&#1098;&#1105;&#1084;&#1097;&#1080;&#1082;</text><ellipse cx="76.9336" cy="13.5" fill="#E2E2F0" rx="8" ry="8" style="stroke:#181818;stroke-width:0.5;"/><path d="M76.9336,21.5 L76.9336,48.5 M63.9336,29.5 L89.9336,29.5 M76.9336,48.5 L63.9336,63.5 M76.9336,48.5 L89.9336,63.5 " fill="none" style="stroke:#181818;stroke-width:0.5;"/><text fill="#000000" font-family="sans-serif" font-size="14" lengthAdjust="spacing" textLength="137.8672" x="5" y="433.7529">&#1050;&#1074;&#1072;&#1088;&#1090;&#1080;&#1088;&#1086;&#1089;&#1098;&#1105;&#1084;&#1097;&#1080;&#1082;</text><ellipse cx="76.9336" cy="445.5547" fill="#E2E2F0" rx="8" ry="8" style="stroke:#181818;stroke-width:0.5;"/><path d="M76.9336,453.5547 L76.9336,480.5547 M63.9336,461.5547 L89.9336,461.5547 M76.9336,480.5547 L63.9336,495.5547 M76.9336,480.5547 L89.9336,495.5547 " fill="none" style="stroke:#181818;stroke-width:0.5;"/><rect fill="#E2E2F0" height="30.2969" rx="2.5" ry="2.5" style="stroke:#181818;stroke-width:0.5;" width="41.3506" x="324.1841" y="50"/><text fill="#000000" font-family="sans-serif" font-size="14" lengthAdjust="spacing" textLength="27.3506" x="331.1841" y="69.9951">App</text><rect fill="#E2E2F0" height="30.2969" rx="2.5" ry="2.5" style="stroke:#181818;stroke-width:0.5;" width="41.3506" x="324.1841" y="420.7578"/><text fill="#000000" font-family="sans-serif" font-size="14" lengthAdjust="spacing" textLength="27.3506" x="331.1841" y="440.7529">App</text><rect fill="#E2E2F0" height="30.2969" rx="2.5" ry="2.5" style="stroke:#181818;stroke-width:0.5;" width="60.6074" x="524.1826" y="50"/><text fill="#000000" font-family="sans-serif" font-size="14" lengthAdjust="spacing" textLength="46.6074" x="531.1826" y="69.9951">Advert</text><rect fill="#E2E2F0" height="30.2969" rx="2.5" ry="2.5" style="stroke:#181818;stroke-width:0.5;" width="60.6074" x="524.1826" y="420.7578"/><text fill="#000000" font-family="sans-serif" font-size="14" lengthAdjust="spacing" textLength="46.6074" x="531.1826" y="440.7529">Advert</text><rect fill="#E2E2F0" height="30.2969" rx="2.5" ry="2.5" style="stroke:#181818;stroke-width:0.5;" width="116.1631" x="596.0269" y="50"/><text fill="#000000" font-family="sans-serif" font-size="14" lengthAdjust="spacing" textLength="102.1631" x="603.0269" y="69.9951">InactiveAdvert</text><rect fill="#E2E2F0" height="30.2969" rx="2.5" ry="2.5" style="stroke:#181818;stroke-width:0.5;" width="116.1631" x="596.0269" y="420.7578"/><text fill="#000000" font-family="sans-serif" font-size="14" lengthAdjust="spacing" textLength="102.1631" x="603.0269" y="440.7529">InactiveAdvert</text><rect fill="#FFFFFF" height="300.3281" style="stroke:#181818;stroke-width:1;" width="10" x="339.8594" y="112.4297"/><rect fill="#FFFFFF" height="242.0625" style="stroke:#181818;stroke-width:1;" width="10" x="549.4863" y="170.6953"/><rect fill="#FFFFFF" height="212.9297" style="stroke:#181818;stroke-width:1;" width="10" x="649.1084" y="199.8281"/><polygon fill="#181818" points="327.8594,108.4297,337.8594,112.4297,327.8594,116.4297,331.8594,112.4297" style="stroke:#181818;stroke-width:1;"/><line style="stroke:#181818;stroke-width:1;" x1="76.9336" x2="333.8594" y1="112.4297" y2="112.4297"/><text fill="#000000" font-family="sans-serif" font-size="13" lengthAdjust="spacing" textLength="51.6953" x="83.9336" y="107.3638">create()</text><polygon fill="#181818" points="327.8594,137.5625,337.8594,141.5625,327.8594,145.5625,331.8594,141.5625" style="stroke:#181818;stroke-width:1;"/><line style="stroke:#181818;stroke-width:1;" x1="76.9336" x2="333.8594" y1="141.5625" y2="141.5625"/><text fill="#000000" font-family="sans-serif" font-size="13" lengthAdjust="spacing" textLength="100.5469" x="83.9336" y="136.4966">create_advert()</text><polygon fill="#181818" points="537.4863,166.6953,547.4863,170.6953,537.4863,174.6953,541.4863,170.6953" style="stroke:#181818;stroke-width:1;"/><line style="stroke:#181818;stroke-width:1;" x1="349.8594" x2="543.4863" y1="170.6953" y2="170.6953"/><text fill="#000000" font-family="sans-serif" font-size="13" lengthAdjust="spacing" textLength="51.6953" x="356.8594" y="165.6294">create()</text><polygon fill="#181818" points="637.1084,195.8281,647.1084,199.8281,637.1084,203.8281,641.1084,199.8281" style="stroke:#181818;stroke-width:1;"/><line style="stroke:#181818;stroke-width:1;" x1="559.4863" x2="643.1084" y1="199.8281" y2="199.8281"/><text fill="#000000" font-family="sans-serif" font-size="13" lengthAdjust="spacing" textLength="51.6953" x="566.4863" y="194.7622">create()</text><polygon fill="#181818" points="327.8594,224.9609,337.8594,228.9609,327.8594,232.9609,331.8594,228.9609" style="stroke:#181818;stroke-width:1;"/><line style="stroke:#181818;stroke-width:1;" x1="76.9336" x2="333.8594" y1="228.9609" y2="228.9609"/><text fill="#000000" font-family="sans-serif" font-size="13" lengthAdjust="spacing" textLength="238.9258" x="83.9336" y="223.895">set_advert_info(room_num, address)</text><polygon fill="#181818" points="537.4863,254.0938,547.4863,258.0938,537.4863,262.0938,541.4863,258.0938" style="stroke:#181818;stroke-width:1;"/><line style="stroke:#181818;stroke-width:1;" x1="349.8594" x2="543.4863" y1="258.0938" y2="258.0938"/><text fill="#000000" font-family="sans-serif" font-size="13" lengthAdjust="spacing" textLength="175.627" x="356.8594" y="253.0278">set_room_num(room_num)</text><polygon fill="#181818" points="537.4863,283.2266,547.4863,287.2266,537.4863,291.2266,541.4863,287.2266" style="stroke:#181818;stroke-width:1;"/><line style="stroke:#181818;stroke-width:1;" x1="349.8594" x2="543.4863" y1="287.2266" y2="287.2266"/><text fill="#000000" font-family="sans-serif" font-size="13" lengthAdjust="spacing" textLength="139.2295" x="356.8594" y="282.1606">set_address(address)</text><polygon fill="#181818" points="327.8594,312.3594,337.8594,316.3594,327.8594,320.3594,331.8594,316.3594" style="stroke:#181818;stroke-width:1;"/><line style="stroke:#181818;stroke-width:1;" x1="76.9336" x2="333.8594" y1="316.3594" y2="316.3594"/><text fill="#000000" font-family="sans-serif" font-size="13" lengthAdjust="spacing" textLength="157.1299" x="83.9336" y="311.2935">make_advert_do_smth()</text><polygon fill="#181818" points="537.4863,341.4922,547.4863,345.4922,537.4863,349.4922,541.4863,345.4922" style="stroke:#181818;stroke-width:1;"/><line style="stroke:#181818;stroke-width:1;" x1="349.8594" x2="543.4863" y1="345.4922" y2="345.4922"/><text fill="#000000" font-family="sans-serif" font-size="13" lengthAdjust="spacing" textLength="65.6221" x="356.8594" y="340.4263">do_smth()</text><polygon fill="#181818" points="637.1084,370.625,647.1084,374.625,637.1084,378.625,641.1084,374.625" style="stroke:#181818;stroke-width:1;"/><line style="stroke:#181818;stroke-width:1;" x1="559.4863" x2="643.1084" y1="374.625" y2="374.625"/><text fill="#000000" font-family="sans-serif" font-size="13" lengthAdjust="spacing" textLength="65.6221" x="566.4863" y="369.5591">do_smth()</text><polygon fill="#181818" points="327.8594,399.7578,337.8594,403.7578,327.8594,407.7578,331.8594,403.7578" style="stroke:#181818;stroke-width:1;"/><line style="stroke:#181818;stroke-width:1;" x1="76.9336" x2="333.8594" y1="403.7578" y2="403.7578"/><text fill="#000000" font-family="sans-serif" font-size="13" lengthAdjust="spacing" textLength="43.6274" x="83.9336" y="398.6919">close()</text><!--SRC=[IqmkoIzIk33hmgOB6ousN6owiEDYmuLz5nilTbsSU67FnSuBEoxiukB2Bw-WQwVWM52WOAMGN9IQM9AgeScLc5oIMGPaWiH9r1sVc5AMMbG2D0Ga2f84yx6R3fRYWge0glNC0ykbuj63geHennMdba1T5f-PbvQlKPIVdnkVLvghev2OabAKMboCwLwG5fWok7hiog1cQC3D8jPPkOdPi12BJycFByujoS0ISaWok8CAeOZe2Cl9BmQ5BG00]--></g></svg>