<svg xmlns="http://www.w3.org/2000/svg" xmlns:xlink="http://www.w3.org/1999/xlink" contentStyleType="text/css" height="589px" preserveAspectRatio="none" style="width:705px;height:589px;background:#FFFFFF;" version="1.1" viewBox="0 0 705 589" width="705px" zoomAndPan="magnify"><defs/><g><rect fill="#FFFFFF" height="387.7266" style="stroke:#181818;stroke-width:1;" width="10" x="258.0635" y="112.4297"/><rect fill="#FFFFFF" height="300.3281" style="stroke:#181818;stroke-width:1;" width="10" x="424.1836" y="199.8281"/><rect fill="#FFFFFF" height="145.6641" style="stroke:#181818;stroke-width:1;" width="10" x="522.5688" y="228.9609"/><rect fill="#FFFFFF" height="125.5313" style="stroke:#181818;stroke-width:1;" width="10" x="642.73" y="374.625"/><line style="stroke:#181818;stroke-width:0.5;stroke-dasharray:5.0,5.0;" x1="76" x2="76" y1="81.2969" y2="509.1563"/><line style="stroke:#181818;stroke-width:0.5;stroke-dasharray:5.0,5.0;" x1="262.3882" x2="262.3882" y1="81.2969" y2="509.1563"/><line style="stroke:#181818;stroke-width:0.5;stroke-dasharray:5.0,5.0;" x1="428.8799" x2="428.8799" y1="81.2969" y2="509.1563"/><line style="stroke:#181818;stroke-width:0.5;stroke-dasharray:5.0,5.0;" x1="527.4873" x2="527.4873" y1="81.2969" y2="509.1563"/><line style="stroke:#181818;stroke-width:0.5;stroke-dasharray:5.0,5.0;" x1="647.6504" x2="647.6504" y1="81.2969" y2="509.1563"/><text fill="#000000" font-family="sans-serif" font-size="14" lengthAdjust="spacing" textLength="137.8672" x="5" y="77.9951">&#1050;&#1074;&#1072;&#1088;&#1090;&#1080;&#1088;&#1086;&#1089;&#1098;&#1105;&#1084;&#1097;&#1080;&#1082;</text><ellipse cx="76.9336" cy="13.5" fill="#E2E2F0" rx="8" ry="8" style="stroke:#181818;stroke-width:0.5;"/><path d="M76.9336,21.5 L76.9336,48.5 M63.9336,29.5 L89.9336,29.5 M76.9336,48.5 L63.9336,63.5 M76.9336,48.5 L89.9336,63.5 " fill="none" style="stroke:#181818;stroke-width:0.5;"/><text fill="#000000" font-family="sans-serif" font-size="14" lengthAdjust="spacing" textLength="137.8672" x="5" y="521.1514">&#1050;&#1074;&#1072;&#1088;&#1090;&#1080;&#1088;&#1086;&#1089;&#1098;&#1105;&#1084;&#1097;&#1080;&#1082;</text><ellipse cx="76.9336" cy="532.9531" fill="#E2E2F0" rx="8" ry="8" style="stroke:#181818;stroke-width:0.5;"/><path d="M76.9336,540.9531 L76.9336,567.9531 M63.9336,548.9531 L89.9336,548.9531 M76.9336,567.9531 L63.9336,582.9531 M76.9336,567.9531 L89.9336,582.9531 " fill="none" style="stroke:#181818;stroke-width:0.5;"/><rect fill="#E2E2F0" height="30.2969" rx="2.5" ry="2.5" style="stroke:#181818;stroke-width:0.5;" width="41.3506" x="242.3882" y="50"/><text fill="#000000" font-family="sans-serif" font-size="14" lengthAdjust="spacing" textLength="27.3506" x="249.3882" y="69.9951">App</text><rect fill="#E2E2F0" height="30.2969" rx="2.5" ry="2.5" style="stroke:#181818;stroke-width:0.5;" width="41.3506" x="242.3882" y="508.1563"/><text fill="#000000" font-family="sans-serif" font-size="14" lengthAdjust="spacing" textLength="27.3506" x="249.3882" y="528.1514">App</text><rect fill="#E2E2F0" height="30.2969" rx="2.5" ry="2.5" style="stroke:#181818;stroke-width:0.5;" width="60.6074" x="398.8799" y="50"/><text fill="#000000" font-family="sans-serif" font-size="14" lengthAdjust="spacing" textLength="46.6074" x="405.8799" y="69.9951">Advert</text><rect fill="#E2E2F0" height="30.2969" rx="2.5" ry="2.5" style="stroke:#181818;stroke-width:0.5;" width="60.6074" x="398.8799" y="508.1563"/><text fill="#000000" font-family="sans-serif" font-size="14" lengthAdjust="spacing" textLength="46.6074" x="405.8799" y="528.1514">Advert</text><rect fill="#E2E2F0" height="30.2969" rx="2.5" ry="2.5" style="stroke:#181818;stroke-width:0.5;" width="116.1631" x="469.4873" y="50"/><text fill="#000000" font-family="sans-serif" font-size="14" lengthAdjust="spacing" textLength="102.1631" x="476.4873" y="69.9951">InactiveAdvert</text><rect fill="#E2E2F0" height="30.2969" rx="2.5" ry="2.5" style="stroke:#181818;stroke-width:0.5;" width="116.1631" x="469.4873" y="508.1563"/><text fill="#000000" font-family="sans-serif" font-size="14" lengthAdjust="spacing" textLength="102.1631" x="476.4873" y="528.1514">InactiveAdvert</text><rect fill="#E2E2F0" height="30.2969" rx="2.5" ry="2.5" style="stroke:#181818;stroke-width:0.5;" width="104.1592" x="595.6504" y="50"/><text fill="#000000" font-family="sans-serif" font-size="14" lengthAdjust="spacing" textLength="90.1592" x="602.6504" y="69.9951">ActiveAdvert</text><rect fill="#E2E2F0" height="30.2969" rx="2.5" ry="2.5" style="stroke:#181818;stroke-width:0.5;" width="104.1592" x="595.6504" y="508.1563"/><text fill="#000000" font-family="sans-serif" font-size="14" lengthAdjust="spacing" textLength="90.1592" x="602.6504" y="528.1514">ActiveAdvert</text><rect fill="#FFFFFF" height="387.7266" style="stroke:#181818;stroke-width:1;" width="10" x="258.0635" y="112.4297"/><rect fill="#FFFFFF" height="300.3281" style="stroke:#181818;stroke-width:1;" width="10" x="424.1836" y="199.8281"/><rect fill="#FFFFFF" height="145.6641" style="stroke:#181818;stroke-width:1;" width="10" x="522.5688" y="228.9609"/><rect fill="#FFFFFF" height="125.5313" style="stroke:#181818;stroke-width:1;" width="10" x="642.73" y="374.625"/><polygon fill="#181818" points="246.0635,108.4297,256.0635,112.4297,246.0635,116.4297,250.0635,112.4297" style="stroke:#181818;stroke-width:1;"/><line style="stroke:#181818;stroke-width:1;" x1="76.9336" x2="252.0635" y1="112.4297" y2="112.4297"/><text fill="#000000" font-family="sans-serif" font-size="13" lengthAdjust="spacing" textLength="51.6953" x="83.9336" y="107.3638">create()</text><polygon fill="#181818" points="246.0635,137.5625,256.0635,141.5625,246.0635,145.5625,250.0635,141.5625" style="stroke:#181818;stroke-width:1;"/><line style="stroke:#181818;stroke-width:1;" x1="76.9336" x2="252.0635" y1="141.5625" y2="141.5625"/><text fill="#000000" font-family="sans-serif" font-size="13" lengthAdjust="spacing" textLength="98.8267" x="83.9336" y="136.4966">fetch_adverts()</text><polygon fill="#181818" points="246.0635,166.6953,256.0635,170.6953,246.0635,174.6953,250.0635,170.6953" style="stroke:#181818;stroke-width:1;"/><line style="stroke:#181818;stroke-width:1;" x1="76.9336" x2="252.0635" y1="170.6953" y2="170.6953"/><text fill="#000000" font-family="sans-serif" font-size="13" lengthAdjust="spacing" textLength="156.0063" x="83.9336" y="165.6294">get_first_found_advert()</text><polygon fill="#181818" points="412.1836,195.8281,422.1836,199.8281,412.1836,203.8281,416.1836,199.8281" style="stroke:#181818;stroke-width:1;"/><line style="stroke:#181818;stroke-width:1;" x1="268.0635" x2="418.1836" y1="199.8281" y2="199.8281"/><text fill="#000000" font-family="sans-serif" font-size="13" lengthAdjust="spacing" textLength="51.6953" x="275.0635" y="194.7622">create()</text><polygon fill="#181818" points="510.5688,224.9609,520.5688,228.9609,510.5688,232.9609,514.5688,228.9609" style="stroke:#181818;stroke-width:1;"/><line style="stroke:#181818;stroke-width:1;" x1="434.1836" x2="516.5688" y1="228.9609" y2="228.9609"/><text fill="#000000" font-family="sans-serif" font-size="13" lengthAdjust="spacing" textLength="51.6953" x="441.1836" y="223.895">create()</text><polygon fill="#181818" points="246.0635,254.0938,256.0635,258.0938,246.0635,262.0938,250.0635,258.0938" style="stroke:#181818;stroke-width:1;"/><line style="stroke:#181818;stroke-width:1;" x1="76.9336" x2="252.0635" y1="258.0938" y2="258.0938"/><text fill="#000000" font-family="sans-serif" font-size="13" lengthAdjust="spacing" textLength="103.4731" x="83.9336" y="253.0278">apply_for_rent()</text><polygon fill="#181818" points="412.1836,283.2266,422.1836,287.2266,412.1836,291.2266,416.1836,287.2266" style="stroke:#181818;stroke-width:1;"/><line style="stroke:#181818;stroke-width:1;" x1="268.0635" x2="418.1836" y1="287.2266" y2="287.2266"/><text fill="#000000" font-family="sans-serif" font-size="13" lengthAdjust="spacing" textLength="132.1201" x="275.0635" y="282.1606">set_renter(cur_user)</text><polygon fill="#181818" points="412.1836,312.3594,422.1836,316.3594,412.1836,320.3594,416.1836,316.3594" style="stroke:#181818;stroke-width:1;"/><line style="stroke:#181818;stroke-width:1;" x1="268.0635" x2="418.1836" y1="316.3594" y2="316.3594"/><text fill="#000000" font-family="sans-serif" font-size="13" lengthAdjust="spacing" textLength="62.7212" x="275.0635" y="311.2935">activate()</text><polygon fill="#181818" points="510.5688,341.4922,520.5688,345.4922,510.5688,349.4922,514.5688,345.4922" style="stroke:#181818;stroke-width:1;"/><line style="stroke:#181818;stroke-width:1;" x1="434.1836" x2="516.5688" y1="345.4922" y2="345.4922"/><text fill="#000000" font-family="sans-serif" font-size="13" lengthAdjust="spacing" textLength="62.7212" x="441.1836" y="340.4263">activate()</text><polygon fill="#181818" points="630.73,370.625,640.73,374.625,630.73,378.625,634.73,374.625" style="stroke:#181818;stroke-width:1;"/><line style="stroke:#181818;stroke-width:1;" x1="527.5688" x2="636.73" y1="374.625" y2="374.625"/><text fill="#000000" font-family="sans-serif" font-size="13" lengthAdjust="spacing" textLength="51.6953" x="534.5688" y="369.5591">create()</text><polygon fill="#181818" points="246.0635,399.7578,256.0635,403.7578,246.0635,407.7578,250.0635,403.7578" style="stroke:#181818;stroke-width:1;"/><line style="stroke:#181818;stroke-width:1;" x1="76.9336" x2="252.0635" y1="403.7578" y2="403.7578"/><text fill="#000000" font-family="sans-serif" font-size="13" lengthAdjust="spacing" textLength="157.1299" x="83.9336" y="398.6919">make_advert_do_smth()</text><polygon fill="#181818" points="412.1836,428.8906,422.1836,432.8906,412.1836,436.8906,416.1836,432.8906" style="stroke:#181818;stroke-width:1;"/><line style="stroke:#181818;stroke-width:1;" x1="268.0635" x2="418.1836" y1="432.8906" y2="432.8906"/><text fill="#000000" font-family="sans-serif" font-size="13" lengthAdjust="spacing" textLength="65.6221" x="275.0635" y="427.8247">do_smth()</text><polygon fill="#181818" points="630.73,458.0234,640.73,462.0234,630.73,466.0234,634.73,462.0234" style="stroke:#181818;stroke-width:1;"/><line style="stroke:#181818;stroke-width:1;" x1="434.1836" x2="636.73" y1="462.0234" y2="462.0234"/><text fill="#000000" font-family="sans-serif" font-size="13" lengthAdjust="spacing" textLength="65.6221" x="441.1836" y="456.9575">do_smth()</text><polygon fill="#181818" points="246.0635,487.1563,256.0635,491.1563,246.0635,495.1563,250.0635,491.1563" style="stroke:#181818;stroke-width:1;"/><line style="stroke:#181818;stroke-width:1;" x1="76.9336" x2="252.0635" y1="491.1563" y2="491.1563"/><text fill="#000000" font-family="sans-serif" font-size="13" lengthAdjust="spacing" textLength="43.6274" x="83.9336" y="486.0903">close()</text><!--SRC=[dL8z2i8m6DrxYenry08EWgEd227zQelzuqjQS5CttLmzXJWL4S-GtCYaLApQbE8Iak_zy5uIncMEH9tLLLtqLkzLhRVgeNVwg4_ghW-gLZVF6yR9T4uMHK5cX2Cm2Vx4Orp6bTdQ-MXr2997b0KLe1J6PAnk1PA6CGgpvcKMj0x6mCAMrPpxupMGrp8CTvar60neFYcZKxAYI3Oc8LA4h2-TC3Ki1EZp4caf07z9hnHMxmxTONrXrijHC017HTAvht-QfsmDxQFG8ASYbL5F_GxYYlgcZFwGIIvijoS0]--></g></svg>