<svg xmlns="http://www.w3.org/2000/svg" xmlns:xlink="http://www.w3.org/1999/xlink" contentStyleType="text/css" height="417px" preserveAspectRatio="none" style="width:463px;height:417px;background:#FFFFFF;" version="1.1" viewBox="0 0 463 417" width="463px" zoomAndPan="magnify"><defs/><g><rect fill="#FFFFFF" height="214.9297" style="stroke:#181818;stroke-width:1;" width="10" x="248.1489" y="112.4297"/><rect fill="#FFFFFF" height="156.6641" style="stroke:#181818;stroke-width:1;" width="10" x="418.7061" y="170.6953"/><rect fill="none" height="104.5313" style="stroke:#000000;stroke-width:1.5;" width="447.0645" x="10" y="185.6953"/><line style="stroke:#181818;stroke-width:0.5;stroke-dasharray:5.0,5.0;" x1="91" x2="91" y1="81.2969" y2="336.3594"/><line style="stroke:#181818;stroke-width:0.5;stroke-dasharray:5.0,5.0;" x1="252.4736" x2="252.4736" y1="81.2969" y2="336.3594"/><line style="stroke:#181818;stroke-width:0.5;stroke-dasharray:5.0,5.0;" x1="423.3477" x2="423.3477" y1="81.2969" y2="336.3594"/><text fill="#000000" font-family="sans-serif" font-size="14" lengthAdjust="spacing" textLength="137.8672" x="20" y="77.9951">&#1050;&#1074;&#1072;&#1088;&#1090;&#1080;&#1088;&#1086;&#1089;&#1098;&#1105;&#1084;&#1097;&#1080;&#1082;</text><ellipse cx="91.9336" cy="13.5" fill="#E2E2F0" rx="8" ry="8" style="stroke:#181818;stroke-width:0.5;"/><path d="M91.9336,21.5 L91.9336,48.5 M78.9336,29.5 L104.9336,29.5 M91.9336,48.5 L78.9336,63.5 M91.9336,48.5 L104.9336,63.5 " fill="none" style="stroke:#181818;stroke-width:0.5;"/><text fill="#000000" font-family="sans-serif" font-size="14" lengthAdjust="spacing" textLength="137.8672" x="20" y="348.3545">&#1050;&#1074;&#1072;&#1088;&#1090;&#1080;&#1088;&#1086;&#1089;&#1098;&#1105;&#1084;&#1097;&#1080;&#1082;</text><ellipse cx="91.9336" cy="360.1563" fill="#E2E2F0" rx="8" ry="8" style="stroke:#181818;stroke-width:0.5;"/><path d="M91.9336,368.1563 L91.9336,395.1563 M78.9336,376.1563 L104.9336,376.1563 M91.9336,395.1563 L78.9336,410.1563 M91.9336,395.1563 L104.9336,410.1563 " fill="none" style="stroke:#181818;stroke-width:0.5;"/><rect fill="#E2E2F0" height="30.2969" rx="2.5" ry="2.5" style="stroke:#181818;stroke-width:0.5;" width="41.3506" x="232.4736" y="50"/><text fill="#000000" font-family="sans-serif" font-size="14" lengthAdjust="spacing" textLength="27.3506" x="239.4736" y="69.9951">App</text><rect fill="#E2E2F0" height="30.2969" rx="2.5" ry="2.5" style="stroke:#181818;stroke-width:0.5;" width="41.3506" x="232.4736" y="335.3594"/><text fill="#000000" font-family="sans-serif" font-size="14" lengthAdjust="spacing" textLength="27.3506" x="239.4736" y="355.3545">App</text><rect fill="#E2E2F0" height="30.2969" rx="2.5" ry="2.5" style="stroke:#181818;stroke-width:0.5;" width="46.7168" x="400.3477" y="50"/><text fill="#000000" font-family="sans-serif" font-size="14" lengthAdjust="spacing" textLength="32.7168" x="407.3477" y="69.9951">Chat</text><rect fill="#E2E2F0" height="30.2969" rx="2.5" ry="2.5" style="stroke:#181818;stroke-width:0.5;" width="46.7168" x="400.3477" y="335.3594"/><text fill="#000000" font-family="sans-serif" font-size="14" lengthAdjust="spacing" textLength="32.7168" x="407.3477" y="355.3545">Chat</text><rect fill="#FFFFFF" height="214.9297" style="stroke:#181818;stroke-width:1;" width="10" x="248.1489" y="112.4297"/><rect fill="#FFFFFF" height="156.6641" style="stroke:#181818;stroke-width:1;" width="10" x="418.7061" y="170.6953"/><polygon fill="#181818" points="236.1489,108.4297,246.1489,112.4297,236.1489,116.4297,240.1489,112.4297" style="stroke:#181818;stroke-width:1;"/><line style="stroke:#181818;stroke-width:1;" x1="91.9336" x2="242.1489" y1="112.4297" y2="112.4297"/><text fill="#000000" font-family="sans-serif" font-size="13" lengthAdjust="spacing" textLength="51.6953" x="98.9336" y="107.3638">create()</text><polygon fill="#181818" points="236.1489,137.5625,246.1489,141.5625,236.1489,145.5625,240.1489,141.5625" style="stroke:#181818;stroke-width:1;"/><line style="stroke:#181818;stroke-width:1;" x1="91.9336" x2="242.1489" y1="141.5625" y2="141.5625"/><text fill="#000000" font-family="sans-serif" font-size="13" lengthAdjust="spacing" textLength="77.5366" x="98.9336" y="136.4966">open_chat()</text><polygon fill="#181818" points="406.7061,166.6953,416.7061,170.6953,406.7061,174.6953,410.7061,170.6953" style="stroke:#181818;stroke-width:1;"/><line style="stroke:#181818;stroke-width:1;" x1="258.1489" x2="412.7061" y1="170.6953" y2="170.6953"/><text fill="#000000" font-family="sans-serif" font-size="13" lengthAdjust="spacing" textLength="51.6953" x="265.1489" y="165.6294">create()</text><path d="M10,185.6953 L86.624,185.6953 L86.624,192.8281 L76.624,202.8281 L10,202.8281 L10,185.6953 " fill="#EEEEEE" style="stroke:#000000;stroke-width:1.5;"/><rect fill="none" height="104.5313" style="stroke:#000000;stroke-width:1.5;" width="447.0645" x="10" y="185.6953"/><text fill="#000000" font-family="sans-serif" font-size="13" font-weight="bold" lengthAdjust="spacing" textLength="31.624" x="25" y="198.7622">loop</text><text fill="#000000" font-family="sans-serif" font-size="11" font-weight="bold" lengthAdjust="spacing" textLength="200.4814" x="101.624" y="197.9058">[&#1087;&#1086;&#1082;&#1072; &#1085;&#1077; &#1088;&#1072;&#1079;&#1088;&#1077;&#1096;&#1077;&#1085;&#1072; &#1087;&#1088;&#1086;&#1073;&#1083;&#1077;&#1084;&#1072;]</text><polygon fill="#181818" points="236.1489,219.9609,246.1489,223.9609,236.1489,227.9609,240.1489,223.9609" style="stroke:#181818;stroke-width:1;"/><line style="stroke:#181818;stroke-width:1;" x1="91.9336" x2="242.1489" y1="223.9609" y2="223.9609"/><text fill="#000000" font-family="sans-serif" font-size="13" lengthAdjust="spacing" textLength="132.2153" x="98.9336" y="218.895">send_message(text)</text><polygon fill="#181818" points="406.7061,249.0938,416.7061,253.0938,406.7061,257.0938,410.7061,253.0938" style="stroke:#181818;stroke-width:1;"/><line style="stroke:#181818;stroke-width:1;" x1="258.1489" x2="412.7061" y1="253.0938" y2="253.0938"/><text fill="#000000" font-family="sans-serif" font-size="13" lengthAdjust="spacing" textLength="132.2153" x="265.1489" y="248.0278">send_message(text)</text><polygon fill="#181818" points="406.7061,278.2266,416.7061,282.2266,406.7061,286.2266,410.7061,282.2266" style="stroke:#181818;stroke-width:1;"/><line style="stroke:#181818;stroke-width:1;" x1="258.1489" x2="412.7061" y1="282.2266" y2="282.2266"/><text fill="#000000" font-family="sans-serif" font-size="13" lengthAdjust="spacing" textLength="136.5571" x="265.1489" y="277.1606">get_new_messages()</text><polygon fill="#181818" points="236.1489,314.3594,246.1489,318.3594,236.1489,322.3594,240.1489,318.3594" style="stroke:#181818;stroke-width:1;"/><line style="stroke:#181818;stroke-width:1;" x1="91.9336" x2="242.1489" y1="318.3594" y2="318.3594"/><text fill="#000000" font-family="sans-serif" font-size="13" lengthAdjust="spacing" textLength="43.6274" x="98.9336" y="313.2935">close()</text><!--SRC=[ZP0z2i9048Nxd6BBM7W12q4yI5ZMGOMO3Tb5BQELsjbwYYW4Gup95TxUoDd2HaJJBBFVctdp8vNLcS05DnGkTtjKBaVhTkxapcZS4HNg8FYjY-5OJD9KZ8JAI5eA1u5KThdcqFFUrJgb958BQTd04nQc_FlgwuKWrZeLwD2YHY7mH2dOly2Ttz8TK39YtlcckEB1e47HUnv3oInQaJ5oJg6bhVqSws_2d6oKqEQTOtW3Bkb_pbWRl_KB]--></g></svg>